<mxfile host="app.diagrams.net" agent="Mozilla/5.0 (Windows NT 10.0; Win64; x64) AppleWebKit/537.36 (KHTML, like Gecko) Chrome/128.0.0.0 Safari/537.36" version="24.7.7">
  <diagram name="Página-1" id="g7CNH_mFradFcammJrW3">
    <mxGraphModel dx="2790" dy="1310" grid="1" gridSize="10" guides="1" tooltips="1" connect="1" arrows="1" fold="1" page="1" pageScale="1" pageWidth="1169" pageHeight="827" math="0" shadow="0">
      <root>
        <mxCell id="0" />
        <mxCell id="1" parent="0" />
        <UserObject label="" plantUmlData="{&#xa;  &quot;data&quot;: &quot;@startuml\n\n&#39; Clase abstracta de estado\nabstract RideState {\n    +handle(ride)\n    +toString()\n}\n\n&#39; Estados concretos que heredan de RideState\nclass PendingState {\n    +handle(ride)\n    +toString()\n}\n\nclass InProgressState {\n    +handle(ride)\n    +toString()\n}\n\nclass CompletedState {\n    +handle(ride)\n    +toString()\n}\n\nclass CancelledState {\n    +handle(ride)\n    +toString()\n}\n\n&#39; Contexto de Ride\nclass Ride {\n    -driver\n    -passenger\n    -origin\n    -destination\n    -state: RideState\n    +request_action()\n    +cancel_ride()\n    +toString()\n}\n\n&#39; Relaciones de herencia\nRideState &lt;|-- PendingState\nRideState &lt;|-- InProgressState\nRideState &lt;|-- CompletedState\nRideState &lt;|-- CancelledState\n\n&#39; Relación de asociación\nRide --&gt; RideState\n\n@enduml\n&quot;,&#xa;  &quot;format&quot;: &quot;svg&quot;&#xa;}" id="8xXhik0c4usQAm_cwb4U-1">
          <mxCell style="shape=image;noLabel=1;verticalAlign=top;aspect=fixed;imageAspect=0;image=data:image/svg+xml,PD94bWwgdmVyc2lvbj0iMS4wIiBlbmNvZGluZz0idXMtYXNjaWkiIHN0YW5kYWxvbmU9Im5vIj8+PHN2ZyB4bWxucz0iaHR0cDovL3d3dy53My5vcmcvMjAwMC9zdmciIHhtbG5zOnhsaW5rPSJodHRwOi8vd3d3LnczLm9yZy8xOTk5L3hsaW5rIiBjb250ZW50U3R5bGVUeXBlPSJ0ZXh0L2NzcyIgaGVpZ2h0PSI0NTdweCIgcHJlc2VydmVBc3BlY3RSYXRpbz0ibm9uZSIgc3R5bGU9IndpZHRoOjYzNHB4O2hlaWdodDo0NTdweDtiYWNrZ3JvdW5kOiNGRkZGRkY7IiB2ZXJzaW9uPSIxLjEiIHZpZXdCb3g9IjAgMCA2MzQgNDU3IiB3aWR0aD0iNjM0cHgiIHpvb21BbmRQYW49Im1hZ25pZnkiPjxkZWZzLz48Zz48IS0tY2xhc3MgUmlkZVN0YXRlLS0+PGcgaWQ9ImVsZW1fUmlkZVN0YXRlIj48cmVjdCBjb2RlTGluZT0iMiIgZmlsbD0iI0YxRjFGMSIgaGVpZ2h0PSI3Ny45Njg4IiBpZD0iUmlkZVN0YXRlIiByeD0iMi41IiByeT0iMi41IiBzdHlsZT0ic3Ryb2tlOiMxODE4MTg7c3Ryb2tlLXdpZHRoOjAuNTsiIHdpZHRoPSIxMTIiIHg9IjI1NSIgeT0iMjM1Ii8+PGVsbGlwc2UgY3g9IjI3Ny42NSIgY3k9IjI1MSIgZmlsbD0iI0E5RENERiIgcng9IjExIiByeT0iMTEiIHN0eWxlPSJzdHJva2U6IzE4MTgxODtzdHJva2Utd2lkdGg6MS4wOyIvPjxwYXRoIGQ9Ik0yNzQuMjEyNSwyNDguNjI1IEwyNzQuMjEyNSwyNTYuNzUgTDI3NS45NjI1LDI1Ni43NSBRMjc1Ljk2MjUsMjU2Ljc1IDI3NS45NjI1LDI1Mi41IEwyNzkuNTI1LDI1Mi41IFEyNzkuNTI1LDI1Mi41IDI3OS41MjUsMjU2Ljc1IEwyODEuMjc1LDI1Ni43NSBMMjgxLjI3NSwyNDguNjI1IEwyNzkuNTI1LDI0OC42MjUgUTI3OS41MjUsMjQ4LjYyNSAyNzkuNTI1LDI1MC43NSBMMjc1Ljk2MjUsMjUwLjc1IFEyNzUuOTYyNSwyNTAuNzUgMjc1Ljk2MjUsMjQ4LjYyNSBMMjc0LjIxMjUsMjQ4LjYyNSBaIE0yNzUuMjc1LDI0OS4zMTI1IEwyNzcuMDI1LDI0OS4zMTI1IFEyNzcuMDI1LDI0OS4zMTI1IDI3Ny4wMjUsMjQ2LjUgTDI3NS4yNzUsMjQ2LjUgUTI3NS4yNzUsMjQ2LjUgMjc1LjI3NSwyNDkuMzEyNSBaIE0yODAuMjEyNSwyNDkuMzEyNSBRMjgwLjIxMjUsMjQ5LjMxMjUgMjgwLjIxMjUsMjQ2LjUgTDI3OC40NjI1LDI0Ni41IFEyNzguNDYyNSwyNDYuNSAyNzguNDYyNSwyNDkuMzEyNSBMMjgwLjIxMjUsMjQ5LjMxMjUgWiBNMjc2LjMzNzUsMjQ3LjE4NzUgTDI3OS4xNSwyNDcuMTg3NSBMMjc5LjE1LDI0NS40Mzc1IEwyNzYuMzM3NSwyNDUuNDM3NSBMMjc2LjMzNzUsMjQ3LjE4NzUgWiAiIGZpbGw9IiMwMDAwMDAiLz48dGV4dCBmaWxsPSIjMDAwMDAwIiBmb250LWZhbWlseT0ic2Fucy1zZXJpZiIgZm9udC1zaXplPSIxNCIgZm9udC1zdHlsZT0iaXRhbGljIiBsZW5ndGhBZGp1c3Q9InNwYWNpbmciIHRleHRMZW5ndGg9IjYzIiB4PSIyOTMuMzUiIHk9IjI1Ni43NDIyIj5SaWRlU3RhdGU8L3RleHQ+PGxpbmUgc3R5bGU9InN0cm9rZTojMTgxODE4O3N0cm9rZS13aWR0aDowLjU7IiB4MT0iMjU2IiB4Mj0iMzY2IiB5MT0iMjY3IiB5Mj0iMjY3Ii8+PGxpbmUgc3R5bGU9InN0cm9rZTojMTgxODE4O3N0cm9rZS13aWR0aDowLjU7IiB4MT0iMjU2IiB4Mj0iMzY2IiB5MT0iMjc1IiB5Mj0iMjc1Ii8+PGVsbGlwc2UgY3g9IjI2NiIgY3k9IjI4Ny45OTIyIiBmaWxsPSIjODRCRTg0IiByeD0iMyIgcnk9IjMiIHN0eWxlPSJzdHJva2U6IzAzODA0ODtzdHJva2Utd2lkdGg6MS4wOyIvPjx0ZXh0IGZpbGw9IiMwMDAwMDAiIGZvbnQtZmFtaWx5PSJzYW5zLXNlcmlmIiBmb250LXNpemU9IjE0IiBsZW5ndGhBZGp1c3Q9InNwYWNpbmciIHRleHRMZW5ndGg9Ijg2IiB4PSIyNzUiIHk9IjI5Mi4yMzQ0Ij5oYW5kbGUocmlkZSk8L3RleHQ+PGVsbGlwc2UgY3g9IjI2NiIgY3k9IjMwMi45NzY2IiBmaWxsPSIjODRCRTg0IiByeD0iMyIgcnk9IjMiIHN0eWxlPSJzdHJva2U6IzAzODA0ODtzdHJva2Utd2lkdGg6MS4wOyIvPjx0ZXh0IGZpbGw9IiMwMDAwMDAiIGZvbnQtZmFtaWx5PSJzYW5zLXNlcmlmIiBmb250LXNpemU9IjE0IiBsZW5ndGhBZGp1c3Q9InNwYWNpbmciIHRleHRMZW5ndGg9IjcyIiB4PSIyNzUiIHk9IjMwNy4yMTg4Ij50b1N0cmluZygpPC90ZXh0PjwvZz48IS0tY2xhc3MgUGVuZGluZ1N0YXRlLS0+PGcgaWQ9ImVsZW1fUGVuZGluZ1N0YXRlIj48cmVjdCBjb2RlTGluZT0iOCIgZmlsbD0iI0YxRjFGMSIgaGVpZ2h0PSI3Ny45Njg4IiBpZD0iUGVuZGluZ1N0YXRlIiByeD0iMi41IiByeT0iMi41IiBzdHlsZT0ic3Ryb2tlOiMxODE4MTg7c3Ryb2tlLXdpZHRoOjAuNTsiIHdpZHRoPSIxMTYiIHg9IjciIHk9IjM3MyIvPjxlbGxpcHNlIGN4PSIyMiIgY3k9IjM4OSIgZmlsbD0iI0FERDFCMiIgcng9IjExIiByeT0iMTEiIHN0eWxlPSJzdHJva2U6IzE4MTgxODtzdHJva2Utd2lkdGg6MS4wOyIvPjxwYXRoIGQ9Ik0xOS42MjUsMzkzLjI1IEwxOS42MjUsMzk1IEwyNC41NjI1LDM5NSBMMjQuNTYyNSwzOTMuMjUgTDE5LjYyNSwzOTMuMjUgWiBNMjAuMzEyNSwzOTMuOTM3NSBRMjAuMzEyNSwzOTMuOTM3NSAyMC4zMTI1LDM4NC43NSBMMTguNTYyNSwzODQuNzUgUTE4LjU2MjUsMzg0Ljc1IDE4LjU2MjUsMzkzLjkzNzUgTDIwLjMxMjUsMzkzLjkzNzUgWiBNMjMuODc1LDM5My45Mzc1IEwyNS42MjUsMzkzLjkzNzUgUTI1LjYyNSwzOTMuOTM3NSAyNS42MjUsMzkxLjEyNSBMMjMuODc1LDM5MS4xMjUgUTIzLjg3NSwzOTEuMTI1IDIzLjg3NSwzOTMuOTM3NSBaIE0yMy44NzUsMzg0Ljc1IFEyMy44NzUsMzg0Ljc1IDIzLjg3NSwzODcuNTYyNSBMMjUuNjI1LDM4Ny41NjI1IFEyNS42MjUsMzg3LjU2MjUgMjUuNjI1LDM4NC43NSBMMjMuODc1LDM4NC43NSBaIE0xOS42MjUsMzg1LjQzNzUgTDI0LjU2MjUsMzg1LjQzNzUgTDI0LjU2MjUsMzgzLjY4NzUgTDE5LjYyNSwzODMuNjg3NSBMMTkuNjI1LDM4NS40Mzc1IFogIiBmaWxsPSIjMDAwMDAwIi8+PHRleHQgZmlsbD0iIzAwMDAwMCIgZm9udC1mYW1pbHk9InNhbnMtc2VyaWYiIGZvbnQtc2l6ZT0iMTQiIGxlbmd0aEFkanVzdD0ic3BhY2luZyIgdGV4dExlbmd0aD0iODQiIHg9IjM2IiB5PSIzOTQuNzQyMiI+UGVuZGluZ1N0YXRlPC90ZXh0PjxsaW5lIHN0eWxlPSJzdHJva2U6IzE4MTgxODtzdHJva2Utd2lkdGg6MC41OyIgeDE9IjgiIHgyPSIxMjIiIHkxPSI0MDUiIHkyPSI0MDUiLz48bGluZSBzdHlsZT0ic3Ryb2tlOiMxODE4MTg7c3Ryb2tlLXdpZHRoOjAuNTsiIHgxPSI4IiB4Mj0iMTIyIiB5MT0iNDEzIiB5Mj0iNDEzIi8+PGVsbGlwc2UgY3g9IjE4IiBjeT0iNDI1Ljk5MjIiIGZpbGw9IiM4NEJFODQiIHJ4PSIzIiByeT0iMyIgc3R5bGU9InN0cm9rZTojMDM4MDQ4O3N0cm9rZS13aWR0aDoxLjA7Ii8+PHRleHQgZmlsbD0iIzAwMDAwMCIgZm9udC1mYW1pbHk9InNhbnMtc2VyaWYiIGZvbnQtc2l6ZT0iMTQiIGxlbmd0aEFkanVzdD0ic3BhY2luZyIgdGV4dExlbmd0aD0iODYiIHg9IjI3IiB5PSI0MzAuMjM0NCI+aGFuZGxlKHJpZGUpPC90ZXh0PjxlbGxpcHNlIGN4PSIxOCIgY3k9IjQ0MC45NzY2IiBmaWxsPSIjODRCRTg0IiByeD0iMyIgcnk9IjMiIHN0eWxlPSJzdHJva2U6IzAzODA0ODtzdHJva2Utd2lkdGg6MS4wOyIvPjx0ZXh0IGZpbGw9IiMwMDAwMDAiIGZvbnQtZmFtaWx5PSJzYW5zLXNlcmlmIiBmb250LXNpemU9IjE0IiBsZW5ndGhBZGp1c3Q9InNwYWNpbmciIHRleHRMZW5ndGg9IjcyIiB4PSIyNyIgeT0iNDQ1LjIxODgiPnRvU3RyaW5nKCk8L3RleHQ+PC9nPjwhLS1jbGFzcyBJblByb2dyZXNzU3RhdGUtLT48ZyBpZD0iZWxlbV9JblByb2dyZXNzU3RhdGUiPjxyZWN0IGNvZGVMaW5lPSIxMyIgZmlsbD0iI0YxRjFGMSIgaGVpZ2h0PSI3Ny45Njg4IiBpZD0iSW5Qcm9ncmVzc1N0YXRlIiByeD0iMi41IiByeT0iMi41IiBzdHlsZT0ic3Ryb2tlOiMxODE4MTg7c3Ryb2tlLXdpZHRoOjAuNTsiIHdpZHRoPSIxMzciIHg9IjE1OC41IiB5PSIzNzMiLz48ZWxsaXBzZSBjeD0iMTczLjUiIGN5PSIzODkiIGZpbGw9IiNBREQxQjIiIHJ4PSIxMSIgcnk9IjExIiBzdHlsZT0ic3Ryb2tlOiMxODE4MTg7c3Ryb2tlLXdpZHRoOjEuMDsiLz48cGF0aCBkPSJNMTcxLjEyNSwzOTMuMjUgTDE3MS4xMjUsMzk1IEwxNzYuMDYyNSwzOTUgTDE3Ni4wNjI1LDM5My4yNSBMMTcxLjEyNSwzOTMuMjUgWiBNMTcxLjgxMjUsMzkzLjkzNzUgUTE3MS44MTI1LDM5My45Mzc1IDE3MS44MTI1LDM4NC43NSBMMTcwLjA2MjUsMzg0Ljc1IFExNzAuMDYyNSwzODQuNzUgMTcwLjA2MjUsMzkzLjkzNzUgTDE3MS44MTI1LDM5My45Mzc1IFogTTE3NS4zNzUsMzkzLjkzNzUgTDE3Ny4xMjUsMzkzLjkzNzUgUTE3Ny4xMjUsMzkzLjkzNzUgMTc3LjEyNSwzOTEuMTI1IEwxNzUuMzc1LDM5MS4xMjUgUTE3NS4zNzUsMzkxLjEyNSAxNzUuMzc1LDM5My45Mzc1IFogTTE3NS4zNzUsMzg0Ljc1IFExNzUuMzc1LDM4NC43NSAxNzUuMzc1LDM4Ny41NjI1IEwxNzcuMTI1LDM4Ny41NjI1IFExNzcuMTI1LDM4Ny41NjI1IDE3Ny4xMjUsMzg0Ljc1IEwxNzUuMzc1LDM4NC43NSBaIE0xNzEuMTI1LDM4NS40Mzc1IEwxNzYuMDYyNSwzODUuNDM3NSBMMTc2LjA2MjUsMzgzLjY4NzUgTDE3MS4xMjUsMzgzLjY4NzUgTDE3MS4xMjUsMzg1LjQzNzUgWiAiIGZpbGw9IiMwMDAwMDAiLz48dGV4dCBmaWxsPSIjMDAwMDAwIiBmb250LWZhbWlseT0ic2Fucy1zZXJpZiIgZm9udC1zaXplPSIxNCIgbGVuZ3RoQWRqdXN0PSJzcGFjaW5nIiB0ZXh0TGVuZ3RoPSIxMDUiIHg9IjE4Ny41IiB5PSIzOTQuNzQyMiI+SW5Qcm9ncmVzc1N0YXRlPC90ZXh0PjxsaW5lIHN0eWxlPSJzdHJva2U6IzE4MTgxODtzdHJva2Utd2lkdGg6MC41OyIgeDE9IjE1OS41IiB4Mj0iMjk0LjUiIHkxPSI0MDUiIHkyPSI0MDUiLz48bGluZSBzdHlsZT0ic3Ryb2tlOiMxODE4MTg7c3Ryb2tlLXdpZHRoOjAuNTsiIHgxPSIxNTkuNSIgeDI9IjI5NC41IiB5MT0iNDEzIiB5Mj0iNDEzIi8+PGVsbGlwc2UgY3g9IjE2OS41IiBjeT0iNDI1Ljk5MjIiIGZpbGw9IiM4NEJFODQiIHJ4PSIzIiByeT0iMyIgc3R5bGU9InN0cm9rZTojMDM4MDQ4O3N0cm9rZS13aWR0aDoxLjA7Ii8+PHRleHQgZmlsbD0iIzAwMDAwMCIgZm9udC1mYW1pbHk9InNhbnMtc2VyaWYiIGZvbnQtc2l6ZT0iMTQiIGxlbmd0aEFkanVzdD0ic3BhY2luZyIgdGV4dExlbmd0aD0iODYiIHg9IjE3OC41IiB5PSI0MzAuMjM0NCI+aGFuZGxlKHJpZGUpPC90ZXh0PjxlbGxpcHNlIGN4PSIxNjkuNSIgY3k9IjQ0MC45NzY2IiBmaWxsPSIjODRCRTg0IiByeD0iMyIgcnk9IjMiIHN0eWxlPSJzdHJva2U6IzAzODA0ODtzdHJva2Utd2lkdGg6MS4wOyIvPjx0ZXh0IGZpbGw9IiMwMDAwMDAiIGZvbnQtZmFtaWx5PSJzYW5zLXNlcmlmIiBmb250LXNpemU9IjE0IiBsZW5ndGhBZGp1c3Q9InNwYWNpbmciIHRleHRMZW5ndGg9IjcyIiB4PSIxNzguNSIgeT0iNDQ1LjIxODgiPnRvU3RyaW5nKCk8L3RleHQ+PC9nPjwhLS1jbGFzcyBDb21wbGV0ZWRTdGF0ZS0tPjxnIGlkPSJlbGVtX0NvbXBsZXRlZFN0YXRlIj48cmVjdCBjb2RlTGluZT0iMTgiIGZpbGw9IiNGMUYxRjEiIGhlaWdodD0iNzcuOTY4OCIgaWQ9IkNvbXBsZXRlZFN0YXRlIiByeD0iMi41IiByeT0iMi41IiBzdHlsZT0ic3Ryb2tlOiMxODE4MTg7c3Ryb2tlLXdpZHRoOjAuNTsiIHdpZHRoPSIxMzEiIHg9IjMzMC41IiB5PSIzNzMiLz48ZWxsaXBzZSBjeD0iMzQ1LjUiIGN5PSIzODkiIGZpbGw9IiNBREQxQjIiIHJ4PSIxMSIgcnk9IjExIiBzdHlsZT0ic3Ryb2tlOiMxODE4MTg7c3Ryb2tlLXdpZHRoOjEuMDsiLz48cGF0aCBkPSJNMzQzLjEyNSwzOTMuMjUgTDM0My4xMjUsMzk1IEwzNDguMDYyNSwzOTUgTDM0OC4wNjI1LDM5My4yNSBMMzQzLjEyNSwzOTMuMjUgWiBNMzQzLjgxMjUsMzkzLjkzNzUgUTM0My44MTI1LDM5My45Mzc1IDM0My44MTI1LDM4NC43NSBMMzQyLjA2MjUsMzg0Ljc1IFEzNDIuMDYyNSwzODQuNzUgMzQyLjA2MjUsMzkzLjkzNzUgTDM0My44MTI1LDM5My45Mzc1IFogTTM0Ny4zNzUsMzkzLjkzNzUgTDM0OS4xMjUsMzkzLjkzNzUgUTM0OS4xMjUsMzkzLjkzNzUgMzQ5LjEyNSwzOTEuMTI1IEwzNDcuMzc1LDM5MS4xMjUgUTM0Ny4zNzUsMzkxLjEyNSAzNDcuMzc1LDM5My45Mzc1IFogTTM0Ny4zNzUsMzg0Ljc1IFEzNDcuMzc1LDM4NC43NSAzNDcuMzc1LDM4Ny41NjI1IEwzNDkuMTI1LDM4Ny41NjI1IFEzNDkuMTI1LDM4Ny41NjI1IDM0OS4xMjUsMzg0Ljc1IEwzNDcuMzc1LDM4NC43NSBaIE0zNDMuMTI1LDM4NS40Mzc1IEwzNDguMDYyNSwzODUuNDM3NSBMMzQ4LjA2MjUsMzgzLjY4NzUgTDM0My4xMjUsMzgzLjY4NzUgTDM0My4xMjUsMzg1LjQzNzUgWiAiIGZpbGw9IiMwMDAwMDAiLz48dGV4dCBmaWxsPSIjMDAwMDAwIiBmb250LWZhbWlseT0ic2Fucy1zZXJpZiIgZm9udC1zaXplPSIxNCIgbGVuZ3RoQWRqdXN0PSJzcGFjaW5nIiB0ZXh0TGVuZ3RoPSI5OSIgeD0iMzU5LjUiIHk9IjM5NC43NDIyIj5Db21wbGV0ZWRTdGF0ZTwvdGV4dD48bGluZSBzdHlsZT0ic3Ryb2tlOiMxODE4MTg7c3Ryb2tlLXdpZHRoOjAuNTsiIHgxPSIzMzEuNSIgeDI9IjQ2MC41IiB5MT0iNDA1IiB5Mj0iNDA1Ii8+PGxpbmUgc3R5bGU9InN0cm9rZTojMTgxODE4O3N0cm9rZS13aWR0aDowLjU7IiB4MT0iMzMxLjUiIHgyPSI0NjAuNSIgeTE9IjQxMyIgeTI9IjQxMyIvPjxlbGxpcHNlIGN4PSIzNDEuNSIgY3k9IjQyNS45OTIyIiBmaWxsPSIjODRCRTg0IiByeD0iMyIgcnk9IjMiIHN0eWxlPSJzdHJva2U6IzAzODA0ODtzdHJva2Utd2lkdGg6MS4wOyIvPjx0ZXh0IGZpbGw9IiMwMDAwMDAiIGZvbnQtZmFtaWx5PSJzYW5zLXNlcmlmIiBmb250LXNpemU9IjE0IiBsZW5ndGhBZGp1c3Q9InNwYWNpbmciIHRleHRMZW5ndGg9Ijg2IiB4PSIzNTAuNSIgeT0iNDMwLjIzNDQiPmhhbmRsZShyaWRlKTwvdGV4dD48ZWxsaXBzZSBjeD0iMzQxLjUiIGN5PSI0NDAuOTc2NiIgZmlsbD0iIzg0QkU4NCIgcng9IjMiIHJ5PSIzIiBzdHlsZT0ic3Ryb2tlOiMwMzgwNDg7c3Ryb2tlLXdpZHRoOjEuMDsiLz48dGV4dCBmaWxsPSIjMDAwMDAwIiBmb250LWZhbWlseT0ic2Fucy1zZXJpZiIgZm9udC1zaXplPSIxNCIgbGVuZ3RoQWRqdXN0PSJzcGFjaW5nIiB0ZXh0TGVuZ3RoPSI3MiIgeD0iMzUwLjUiIHk9IjQ0NS4yMTg4Ij50b1N0cmluZygpPC90ZXh0PjwvZz48IS0tY2xhc3MgQ2FuY2VsbGVkU3RhdGUtLT48ZyBpZD0iZWxlbV9DYW5jZWxsZWRTdGF0ZSI+PHJlY3QgY29kZUxpbmU9IjIzIiBmaWxsPSIjRjFGMUYxIiBoZWlnaHQ9Ijc3Ljk2ODgiIGlkPSJDYW5jZWxsZWRTdGF0ZSIgcng9IjIuNSIgcnk9IjIuNSIgc3R5bGU9InN0cm9rZTojMTgxODE4O3N0cm9rZS13aWR0aDowLjU7IiB3aWR0aD0iMTMwIiB4PSI0OTciIHk9IjM3MyIvPjxlbGxpcHNlIGN4PSI1MTIiIGN5PSIzODkiIGZpbGw9IiNBREQxQjIiIHJ4PSIxMSIgcnk9IjExIiBzdHlsZT0ic3Ryb2tlOiMxODE4MTg7c3Ryb2tlLXdpZHRoOjEuMDsiLz48cGF0aCBkPSJNNTA5LjYyNSwzOTMuMjUgTDUwOS42MjUsMzk1IEw1MTQuNTYyNSwzOTUgTDUxNC41NjI1LDM5My4yNSBMNTA5LjYyNSwzOTMuMjUgWiBNNTEwLjMxMjUsMzkzLjkzNzUgUTUxMC4zMTI1LDM5My45Mzc1IDUxMC4zMTI1LDM4NC43NSBMNTA4LjU2MjUsMzg0Ljc1IFE1MDguNTYyNSwzODQuNzUgNTA4LjU2MjUsMzkzLjkzNzUgTDUxMC4zMTI1LDM5My45Mzc1IFogTTUxMy44NzUsMzkzLjkzNzUgTDUxNS42MjUsMzkzLjkzNzUgUTUxNS42MjUsMzkzLjkzNzUgNTE1LjYyNSwzOTEuMTI1IEw1MTMuODc1LDM5MS4xMjUgUTUxMy44NzUsMzkxLjEyNSA1MTMuODc1LDM5My45Mzc1IFogTTUxMy44NzUsMzg0Ljc1IFE1MTMuODc1LDM4NC43NSA1MTMuODc1LDM4Ny41NjI1IEw1MTUuNjI1LDM4Ny41NjI1IFE1MTUuNjI1LDM4Ny41NjI1IDUxNS42MjUsMzg0Ljc1IEw1MTMuODc1LDM4NC43NSBaIE01MDkuNjI1LDM4NS40Mzc1IEw1MTQuNTYyNSwzODUuNDM3NSBMNTE0LjU2MjUsMzgzLjY4NzUgTDUwOS42MjUsMzgzLjY4NzUgTDUwOS42MjUsMzg1LjQzNzUgWiAiIGZpbGw9IiMwMDAwMDAiLz48dGV4dCBmaWxsPSIjMDAwMDAwIiBmb250LWZhbWlseT0ic2Fucy1zZXJpZiIgZm9udC1zaXplPSIxNCIgbGVuZ3RoQWRqdXN0PSJzcGFjaW5nIiB0ZXh0TGVuZ3RoPSI5OCIgeD0iNTI2IiB5PSIzOTQuNzQyMiI+Q2FuY2VsbGVkU3RhdGU8L3RleHQ+PGxpbmUgc3R5bGU9InN0cm9rZTojMTgxODE4O3N0cm9rZS13aWR0aDowLjU7IiB4MT0iNDk4IiB4Mj0iNjI2IiB5MT0iNDA1IiB5Mj0iNDA1Ii8+PGxpbmUgc3R5bGU9InN0cm9rZTojMTgxODE4O3N0cm9rZS13aWR0aDowLjU7IiB4MT0iNDk4IiB4Mj0iNjI2IiB5MT0iNDEzIiB5Mj0iNDEzIi8+PGVsbGlwc2UgY3g9IjUwOCIgY3k9IjQyNS45OTIyIiBmaWxsPSIjODRCRTg0IiByeD0iMyIgcnk9IjMiIHN0eWxlPSJzdHJva2U6IzAzODA0ODtzdHJva2Utd2lkdGg6MS4wOyIvPjx0ZXh0IGZpbGw9IiMwMDAwMDAiIGZvbnQtZmFtaWx5PSJzYW5zLXNlcmlmIiBmb250LXNpemU9IjE0IiBsZW5ndGhBZGp1c3Q9InNwYWNpbmciIHRleHRMZW5ndGg9Ijg2IiB4PSI1MTciIHk9IjQzMC4yMzQ0Ij5oYW5kbGUocmlkZSk8L3RleHQ+PGVsbGlwc2UgY3g9IjUwOCIgY3k9IjQ0MC45NzY2IiBmaWxsPSIjODRCRTg0IiByeD0iMyIgcnk9IjMiIHN0eWxlPSJzdHJva2U6IzAzODA0ODtzdHJva2Utd2lkdGg6MS4wOyIvPjx0ZXh0IGZpbGw9IiMwMDAwMDAiIGZvbnQtZmFtaWx5PSJzYW5zLXNlcmlmIiBmb250LXNpemU9IjE0IiBsZW5ndGhBZGp1c3Q9InNwYWNpbmciIHRleHRMZW5ndGg9IjcyIiB4PSI1MTciIHk9IjQ0NS4yMTg4Ij50b1N0cmluZygpPC90ZXh0PjwvZz48IS0tY2xhc3MgUmlkZS0tPjxnIGlkPSJlbGVtX1JpZGUiPjxyZWN0IGNvZGVMaW5lPSIyOSIgZmlsbD0iI0YxRjFGMSIgaGVpZ2h0PSIxNjcuODc1IiBpZD0iUmlkZSIgcng9IjIuNSIgcnk9IjIuNSIgc3R5bGU9InN0cm9rZTojMTgxODE4O3N0cm9rZS13aWR0aDowLjU7IiB3aWR0aD0iMTQwIiB4PSIyNDEiIHk9IjciLz48ZWxsaXBzZSBjeD0iMjkyLjc1IiBjeT0iMjMiIGZpbGw9IiNBREQxQjIiIHJ4PSIxMSIgcnk9IjExIiBzdHlsZT0ic3Ryb2tlOiMxODE4MTg7c3Ryb2tlLXdpZHRoOjEuMDsiLz48cGF0aCBkPSJNMjkwLjM3NSwyNy4yNSBMMjkwLjM3NSwyOSBMMjk1LjMxMjUsMjkgTDI5NS4zMTI1LDI3LjI1IEwyOTAuMzc1LDI3LjI1IFogTTI5MS4wNjI1LDI3LjkzNzUgUTI5MS4wNjI1LDI3LjkzNzUgMjkxLjA2MjUsMTguNzUgTDI4OS4zMTI1LDE4Ljc1IFEyODkuMzEyNSwxOC43NSAyODkuMzEyNSwyNy45Mzc1IEwyOTEuMDYyNSwyNy45Mzc1IFogTTI5NC42MjUsMjcuOTM3NSBMMjk2LjM3NSwyNy45Mzc1IFEyOTYuMzc1LDI3LjkzNzUgMjk2LjM3NSwyNS4xMjUgTDI5NC42MjUsMjUuMTI1IFEyOTQuNjI1LDI1LjEyNSAyOTQuNjI1LDI3LjkzNzUgWiBNMjk0LjYyNSwxOC43NSBRMjk0LjYyNSwxOC43NSAyOTQuNjI1LDIxLjU2MjUgTDI5Ni4zNzUsMjEuNTYyNSBRMjk2LjM3NSwyMS41NjI1IDI5Ni4zNzUsMTguNzUgTDI5NC42MjUsMTguNzUgWiBNMjkwLjM3NSwxOS40Mzc1IEwyOTUuMzEyNSwxOS40Mzc1IEwyOTUuMzEyNSwxNy42ODc1IEwyOTAuMzc1LDE3LjY4NzUgTDI5MC4zNzUsMTkuNDM3NSBaICIgZmlsbD0iIzAwMDAwMCIvPjx0ZXh0IGZpbGw9IiMwMDAwMDAiIGZvbnQtZmFtaWx5PSJzYW5zLXNlcmlmIiBmb250LXNpemU9IjE0IiBsZW5ndGhBZGp1c3Q9InNwYWNpbmciIHRleHRMZW5ndGg9IjI4IiB4PSIzMTMuMjUiIHk9IjI4Ljc0MjIiPlJpZGU8L3RleHQ+PGxpbmUgc3R5bGU9InN0cm9rZTojMTgxODE4O3N0cm9rZS13aWR0aDowLjU7IiB4MT0iMjQyIiB4Mj0iMzgwIiB5MT0iMzkiIHkyPSIzOSIvPjxyZWN0IGZpbGw9Im5vbmUiIGhlaWdodD0iNiIgc3R5bGU9InN0cm9rZTojQzgyOTMwO3N0cm9rZS13aWR0aDoxLjA7IiB3aWR0aD0iNiIgeD0iMjQ5IiB5PSI0OC45OTIyIi8+PHRleHQgZmlsbD0iIzAwMDAwMCIgZm9udC1mYW1pbHk9InNhbnMtc2VyaWYiIGZvbnQtc2l6ZT0iMTQiIGxlbmd0aEFkanVzdD0ic3BhY2luZyIgdGV4dExlbmd0aD0iNDIiIHg9IjI2MSIgeT0iNTYuMjM0NCI+ZHJpdmVyPC90ZXh0PjxyZWN0IGZpbGw9Im5vbmUiIGhlaWdodD0iNiIgc3R5bGU9InN0cm9rZTojQzgyOTMwO3N0cm9rZS13aWR0aDoxLjA7IiB3aWR0aD0iNiIgeD0iMjQ5IiB5PSI2My45NzY2Ii8+PHRleHQgZmlsbD0iIzAwMDAwMCIgZm9udC1mYW1pbHk9InNhbnMtc2VyaWYiIGZvbnQtc2l6ZT0iMTQiIGxlbmd0aEFkanVzdD0ic3BhY2luZyIgdGV4dExlbmd0aD0iNjMiIHg9IjI2MSIgeT0iNzEuMjE4OCI+cGFzc2VuZ2VyPC90ZXh0PjxyZWN0IGZpbGw9Im5vbmUiIGhlaWdodD0iNiIgc3R5bGU9InN0cm9rZTojQzgyOTMwO3N0cm9rZS13aWR0aDoxLjA7IiB3aWR0aD0iNiIgeD0iMjQ5IiB5PSI3OC45NjA5Ii8+PHRleHQgZmlsbD0iIzAwMDAwMCIgZm9udC1mYW1pbHk9InNhbnMtc2VyaWYiIGZvbnQtc2l6ZT0iMTQiIGxlbmd0aEFkanVzdD0ic3BhY2luZyIgdGV4dExlbmd0aD0iNDIiIHg9IjI2MSIgeT0iODYuMjAzMSI+b3JpZ2luPC90ZXh0PjxyZWN0IGZpbGw9Im5vbmUiIGhlaWdodD0iNiIgc3R5bGU9InN0cm9rZTojQzgyOTMwO3N0cm9rZS13aWR0aDoxLjA7IiB3aWR0aD0iNiIgeD0iMjQ5IiB5PSI5My45NDUzIi8+PHRleHQgZmlsbD0iIzAwMDAwMCIgZm9udC1mYW1pbHk9InNhbnMtc2VyaWYiIGZvbnQtc2l6ZT0iMTQiIGxlbmd0aEFkanVzdD0ic3BhY2luZyIgdGV4dExlbmd0aD0iNzciIHg9IjI2MSIgeT0iMTAxLjE4NzUiPmRlc3RpbmF0aW9uPC90ZXh0PjxyZWN0IGZpbGw9Im5vbmUiIGhlaWdodD0iNiIgc3R5bGU9InN0cm9rZTojQzgyOTMwO3N0cm9rZS13aWR0aDoxLjA7IiB3aWR0aD0iNiIgeD0iMjQ5IiB5PSIxMDguOTI5NyIvPjx0ZXh0IGZpbGw9IiMwMDAwMDAiIGZvbnQtZmFtaWx5PSJzYW5zLXNlcmlmIiBmb250LXNpemU9IjE0IiBsZW5ndGhBZGp1c3Q9InNwYWNpbmciIHRleHRMZW5ndGg9IjExMiIgeD0iMjYxIiB5PSIxMTYuMTcxOSI+c3RhdGU6IFJpZGVTdGF0ZTwvdGV4dD48bGluZSBzdHlsZT0ic3Ryb2tlOiMxODE4MTg7c3Ryb2tlLXdpZHRoOjAuNTsiIHgxPSIyNDIiIHgyPSIzODAiIHkxPSIxMjEuOTIxOSIgeTI9IjEyMS45MjE5Ii8+PGVsbGlwc2UgY3g9IjI1MiIgY3k9IjEzNC45MTQxIiBmaWxsPSIjODRCRTg0IiByeD0iMyIgcnk9IjMiIHN0eWxlPSJzdHJva2U6IzAzODA0ODtzdHJva2Utd2lkdGg6MS4wOyIvPjx0ZXh0IGZpbGw9IiMwMDAwMDAiIGZvbnQtZmFtaWx5PSJzYW5zLXNlcmlmIiBmb250LXNpemU9IjE0IiBsZW5ndGhBZGp1c3Q9InNwYWNpbmciIHRleHRMZW5ndGg9IjExNCIgeD0iMjYxIiB5PSIxMzkuMTU2MyI+cmVxdWVzdF9hY3Rpb24oKTwvdGV4dD48ZWxsaXBzZSBjeD0iMjUyIiBjeT0iMTQ5Ljg5ODQiIGZpbGw9IiM4NEJFODQiIHJ4PSIzIiByeT0iMyIgc3R5bGU9InN0cm9rZTojMDM4MDQ4O3N0cm9rZS13aWR0aDoxLjA7Ii8+PHRleHQgZmlsbD0iIzAwMDAwMCIgZm9udC1mYW1pbHk9InNhbnMtc2VyaWYiIGZvbnQtc2l6ZT0iMTQiIGxlbmd0aEFkanVzdD0ic3BhY2luZyIgdGV4dExlbmd0aD0iOTMiIHg9IjI2MSIgeT0iMTU0LjE0MDYiPmNhbmNlbF9yaWRlKCk8L3RleHQ+PGVsbGlwc2UgY3g9IjI1MiIgY3k9IjE2NC44ODI4IiBmaWxsPSIjODRCRTg0IiByeD0iMyIgcnk9IjMiIHN0eWxlPSJzdHJva2U6IzAzODA0ODtzdHJva2Utd2lkdGg6MS4wOyIvPjx0ZXh0IGZpbGw9IiMwMDAwMDAiIGZvbnQtZmFtaWx5PSJzYW5zLXNlcmlmIiBmb250LXNpemU9IjE0IiBsZW5ndGhBZGp1c3Q9InNwYWNpbmciIHRleHRMZW5ndGg9IjcyIiB4PSIyNjEiIHk9IjE2OS4xMjUiPnRvU3RyaW5nKCk8L3RleHQ+PC9nPjwhLS1yZXZlcnNlIGxpbmsgUmlkZVN0YXRlIHRvIFBlbmRpbmdTdGF0ZS0tPjxnIGlkPSJsaW5rX1JpZGVTdGF0ZV9QZW5kaW5nU3RhdGUiPjxwYXRoIGNvZGVMaW5lPSI0MSIgZD0iTTIzOS4xMTY1LDMxNC43MzggQzE5OS42OTY1LDMzNi41MjggMTYyLjg2LDM1Ni45IDEyMy4wMiwzNzguOTIgIiBmaWxsPSJub25lIiBpZD0iUmlkZVN0YXRlLWJhY2t0by1QZW5kaW5nU3RhdGUiIHN0eWxlPSJzdHJva2U6IzE4MTgxODtzdHJva2Utd2lkdGg6MS4wOyIvPjxwb2x5Z29uIGZpbGw9Im5vbmUiIHBvaW50cz0iMjU0Ljg3LDMwNi4wMywyMzYuMjEzOSwzMDkuNDg2OCwyNDIuMDE5MiwzMTkuOTg5MSwyNTQuODcsMzA2LjAzIiBzdHlsZT0ic3Ryb2tlOiMxODE4MTg7c3Ryb2tlLXdpZHRoOjEuMDsiLz48L2c+PCEtLXJldmVyc2UgbGluayBSaWRlU3RhdGUgdG8gSW5Qcm9ncmVzc1N0YXRlLS0+PGcgaWQ9ImxpbmtfUmlkZVN0YXRlX0luUHJvZ3Jlc3NTdGF0ZSI+PHBhdGggY29kZUxpbmU9IjQyIiBkPSJNMjc3LjkyMTgsMzI4LjU2NDggQzI2Ni40NzE4LDM0Ny4xMDQ4IDI2Mi4yLDM1NCAyNTAuNzQsMzcyLjU3ICIgZmlsbD0ibm9uZSIgaWQ9IlJpZGVTdGF0ZS1iYWNrdG8tSW5Qcm9ncmVzc1N0YXRlIiBzdHlsZT0ic3Ryb2tlOiMxODE4MTg7c3Ryb2tlLXdpZHRoOjEuMDsiLz48cG9seWdvbiBmaWxsPSJub25lIiBwb2ludHM9IjI4Ny4zOCwzMTMuMjUsMjcyLjgxNjksMzI1LjQxMjEsMjgzLjAyNjgsMzMxLjcxNzUsMjg3LjM4LDMxMy4yNSIgc3R5bGU9InN0cm9rZTojMTgxODE4O3N0cm9rZS13aWR0aDoxLjA7Ii8+PC9nPjwhLS1yZXZlcnNlIGxpbmsgUmlkZVN0YXRlIHRvIENvbXBsZXRlZFN0YXRlLS0+PGcgaWQ9ImxpbmtfUmlkZVN0YXRlX0NvbXBsZXRlZFN0YXRlIj48cGF0aCBjb2RlTGluZT0iNDMiIGQ9Ik0zNDQuNDQxNSwzMjguNTEzIEMzNTYuMDMxNSwzNDcuMDUzIDM2MC4zOCwzNTQgMzcxLjk4LDM3Mi41NyAiIGZpbGw9Im5vbmUiIGlkPSJSaWRlU3RhdGUtYmFja3RvLUNvbXBsZXRlZFN0YXRlIiBzdHlsZT0ic3Ryb2tlOiMxODE4MTg7c3Ryb2tlLXdpZHRoOjEuMDsiLz48cG9seWdvbiBmaWxsPSJub25lIiBwb2ludHM9IjMzNC45LDMxMy4yNSwzMzkuMzUzOCwzMzEuNjkzNSwzNDkuNTI5MSwzMjUuMzMyNiwzMzQuOSwzMTMuMjUiIHN0eWxlPSJzdHJva2U6IzE4MTgxODtzdHJva2Utd2lkdGg6MS4wOyIvPjwvZz48IS0tcmV2ZXJzZSBsaW5rIFJpZGVTdGF0ZSB0byBDYW5jZWxsZWRTdGF0ZS0tPjxnIGlkPSJsaW5rX1JpZGVTdGF0ZV9DYW5jZWxsZWRTdGF0ZSI+PHBhdGggY29kZUxpbmU9IjQ0IiBkPSJNMzgyLjg0NDksMzEzLjkyNzUgQzQyMS4yNzQ5LDMzNC43NTc1IDQ1Ni41OCwzNTMuODggNDk2LjgzLDM3NS42OSAiIGZpbGw9Im5vbmUiIGlkPSJSaWRlU3RhdGUtYmFja3RvLUNhbmNlbGxlZFN0YXRlIiBzdHlsZT0ic3Ryb2tlOiMxODE4MTg7c3Ryb2tlLXdpZHRoOjEuMDsiLz48cG9seWdvbiBmaWxsPSJub25lIiBwb2ludHM9IjM2Ny4wMiwzMDUuMzUsMzc5Ljk4NTcsMzE5LjIwMjQsMzg1LjcwNCwzMDguNjUyNSwzNjcuMDIsMzA1LjM1IiBzdHlsZT0ic3Ryb2tlOiMxODE4MTg7c3Ryb2tlLXdpZHRoOjEuMDsiLz48L2c+PCEtLWxpbmsgUmlkZSB0byBSaWRlU3RhdGUtLT48ZyBpZD0ibGlua19SaWRlX1JpZGVTdGF0ZSI+PHBhdGggY29kZUxpbmU9IjQ3IiBkPSJNMzExLDE3NS4wOCBDMzExLDE5NS45IDMxMSwyMTEuMjQgMzExLDIyOC42NyAiIGZpbGw9Im5vbmUiIGlkPSJSaWRlLXRvLVJpZGVTdGF0ZSIgc3R5bGU9InN0cm9rZTojMTgxODE4O3N0cm9rZS13aWR0aDoxLjA7Ii8+PHBvbHlnb24gZmlsbD0iIzE4MTgxOCIgcG9pbnRzPSIzMTEsMjM0LjY3LDMxNSwyMjUuNjcsMzExLDIyOS42NywzMDcsMjI1LjY3LDMxMSwyMzQuNjciIHN0eWxlPSJzdHJva2U6IzE4MTgxODtzdHJva2Utd2lkdGg6MS4wOyIvPjwvZz48IS0tU1JDPVtkUEIxSmlDbTM4UmxVR2hWcldkcjFIM1lDZDdXRGNxRkM5ZDR3WTg1UG9HNjhHNUZuSUZtT1pYZklzYUhYd3Fkbnl2bFZfTVY1TW0yUFc5eW85QkcyZThaZTJwZWVYYnBpRkVFemU5Mnk2UDBsd2laaVdsSzlDc2wtdXA0bElKRk5SQ3M3eVFpdUF3c282MFpzcUlZcVRDcG1QNElFVUdvdXdVZGlHZ0dPS2xpTDdfTWM1dnZwemlLa3FHdk5vM1VuQ1RKODI1dFlIUlBLV1hkUWJTd2F1TFU5T3ZoNkRnTFM2Wklra0hWQUZObklPbDR0TllDb05VVVhzbGdiNlNLN3VUNEJZSk5sdlBSMEhCZnloQ1NyNGt6c0duT2prOFYyY1pwMy1jRTBiZ0xLMndpbkpzczdpdHE3Y3hVc3RQY3RSQXNDNlRQZGdfX0p0TXN1MGRld3hDLThTbkhRVWduQWc1alJ3VFZfbU8wXS0tPjwvZz48L3N2Zz4=;" parent="1" vertex="1">
            <mxGeometry x="690" y="40" width="443.94" height="320" as="geometry" />
          </mxCell>
        </UserObject>
        <UserObject label="" plantUmlData="{&#xa;  &quot;data&quot;: &quot;@startuml\n\n&#39; Interfaz de estrategia\ninterface FareStrategy {\n    +calculate_fare(distance)\n}\n\n&#39; Estrategias concretas que implementan FareStrategy\nclass StandardFareStrategy {\n    +calculate_fare(distance)\n}\n\nclass PremiumFareStrategy {\n    +calculate_fare(distance)\n}\n\nclass SharedFareStrategy {\n    +calculate_fare(distance)\n}\n\n&#39; Clase Ride que utiliza una estrategia de tarifa\nclass Ride {\n    -driver\n    -passenger\n    -origin\n    -destination\n    -distance\n    -fare_strategy: FareStrategy\n    +calculate_fare()\n    +get_ride_details()\n}\n\n&#39; Relaciones de implementación\nFareStrategy &lt;|.. StandardFareStrategy\nFareStrategy &lt;|.. PremiumFareStrategy\nFareStrategy &lt;|.. SharedFareStrategy\n\n&#39; Relación de asociación\nRide --&gt; FareStrategy\n\n@enduml\n&quot;,&#xa;  &quot;format&quot;: &quot;svg&quot;&#xa;}" id="8xXhik0c4usQAm_cwb4U-2">
          <mxCell style="shape=image;noLabel=1;verticalAlign=top;aspect=fixed;imageAspect=0;image=data:image/svg+xml,PD94bWwgdmVyc2lvbj0iMS4wIiBlbmNvZGluZz0idXMtYXNjaWkiIHN0YW5kYWxvbmU9Im5vIj8+PHN2ZyB4bWxucz0iaHR0cDovL3d3dy53My5vcmcvMjAwMC9zdmciIHhtbG5zOnhsaW5rPSJodHRwOi8vd3d3LnczLm9yZy8xOTk5L3hsaW5rIiBjb250ZW50U3R5bGVUeXBlPSJ0ZXh0L2NzcyIgaGVpZ2h0PSI0MjdweCIgcHJlc2VydmVBc3BlY3RSYXRpbz0ibm9uZSIgc3R5bGU9IndpZHRoOjY3MnB4O2hlaWdodDo0MjdweDtiYWNrZ3JvdW5kOiNGRkZGRkY7IiB2ZXJzaW9uPSIxLjEiIHZpZXdCb3g9IjAgMCA2NzIgNDI3IiB3aWR0aD0iNjcycHgiIHpvb21BbmRQYW49Im1hZ25pZnkiPjxkZWZzLz48Zz48IS0tY2xhc3MgRmFyZVN0cmF0ZWd5LS0+PGcgaWQ9ImVsZW1fRmFyZVN0cmF0ZWd5Ij48cmVjdCBjb2RlTGluZT0iMiIgZmlsbD0iI0YxRjFGMSIgaGVpZ2h0PSI2Mi45ODQ0IiBpZD0iRmFyZVN0cmF0ZWd5IiByeD0iMi41IiByeT0iMi41IiBzdHlsZT0ic3Ryb2tlOiMxODE4MTg7c3Ryb2tlLXdpZHRoOjAuNTsiIHdpZHRoPSIxOTYiIHg9IjIzOCIgeT0iMjM1Ii8+PGVsbGlwc2UgY3g9IjI4OS43NSIgY3k9IjI1MSIgZmlsbD0iI0I0QTdFNSIgcng9IjExIiByeT0iMTEiIHN0eWxlPSJzdHJva2U6IzE4MTgxODtzdHJva2Utd2lkdGg6MS4wOyIvPjxwYXRoIGQ9Ik0yOTIuODc1LDI1NyBMMjkyLjg3NSwyNTUuMjUgTDI5MC43NSwyNTUuMjUgUTI5MC43NSwyNTUuMjUgMjkwLjc1LDI0Ny40Mzc1IEwyOTIuODc1LDI0Ny40Mzc1IEwyOTIuODc1LDI0NS42ODc1IEwyODYuODc1LDI0NS42ODc1IEwyODYuODc1LDI0Ny40Mzc1IEwyODksMjQ3LjQzNzUgUTI4OSwyNDcuNDM3NSAyODksMjU1LjI1IEwyODYuODc1LDI1NS4yNSBMMjg2Ljg3NSwyNTcgTDI5Mi44NzUsMjU3IFogIiBmaWxsPSIjMDAwMDAwIi8+PHRleHQgZmlsbD0iIzAwMDAwMCIgZm9udC1mYW1pbHk9InNhbnMtc2VyaWYiIGZvbnQtc2l6ZT0iMTQiIGZvbnQtc3R5bGU9Iml0YWxpYyIgbGVuZ3RoQWRqdXN0PSJzcGFjaW5nIiB0ZXh0TGVuZ3RoPSI4NCIgeD0iMzEwLjI1IiB5PSIyNTYuNzQyMiI+RmFyZVN0cmF0ZWd5PC90ZXh0PjxsaW5lIHN0eWxlPSJzdHJva2U6IzE4MTgxODtzdHJva2Utd2lkdGg6MC41OyIgeDE9IjIzOSIgeDI9IjQzMyIgeTE9IjI2NyIgeTI9IjI2NyIvPjxsaW5lIHN0eWxlPSJzdHJva2U6IzE4MTgxODtzdHJva2Utd2lkdGg6MC41OyIgeDE9IjIzOSIgeDI9IjQzMyIgeTE9IjI3NSIgeTI9IjI3NSIvPjxlbGxpcHNlIGN4PSIyNDkiIGN5PSIyODcuOTkyMiIgZmlsbD0iIzg0QkU4NCIgcng9IjMiIHJ5PSIzIiBzdHlsZT0ic3Ryb2tlOiMwMzgwNDg7c3Ryb2tlLXdpZHRoOjEuMDsiLz48dGV4dCBmaWxsPSIjMDAwMDAwIiBmb250LWZhbWlseT0ic2Fucy1zZXJpZiIgZm9udC1zaXplPSIxNCIgbGVuZ3RoQWRqdXN0PSJzcGFjaW5nIiB0ZXh0TGVuZ3RoPSIxNzAiIHg9IjI1OCIgeT0iMjkyLjIzNDQiPmNhbGN1bGF0ZV9mYXJlKGRpc3RhbmNlKTwvdGV4dD48L2c+PCEtLWNsYXNzIFN0YW5kYXJkRmFyZVN0cmF0ZWd5LS0+PGcgaWQ9ImVsZW1fU3RhbmRhcmRGYXJlU3RyYXRlZ3kiPjxyZWN0IGNvZGVMaW5lPSI3IiBmaWxsPSIjRjFGMUYxIiBoZWlnaHQ9IjYyLjk4NDQiIGlkPSJTdGFuZGFyZEZhcmVTdHJhdGVneSIgcng9IjIuNSIgcnk9IjIuNSIgc3R5bGU9InN0cm9rZTojMTgxODE4O3N0cm9rZS13aWR0aDowLjU7IiB3aWR0aD0iMTk2IiB4PSI3IiB5PSIzNTgiLz48ZWxsaXBzZSBjeD0iMzIuOCIgY3k9IjM3NCIgZmlsbD0iI0FERDFCMiIgcng9IjExIiByeT0iMTEiIHN0eWxlPSJzdHJva2U6IzE4MTgxODtzdHJva2Utd2lkdGg6MS4wOyIvPjxwYXRoIGQ9Ik0zMC40MjUsMzc4LjI1IEwzMC40MjUsMzgwIEwzNS4zNjI1LDM4MCBMMzUuMzYyNSwzNzguMjUgTDMwLjQyNSwzNzguMjUgWiBNMzEuMTEyNSwzNzguOTM3NSBRMzEuMTEyNSwzNzguOTM3NSAzMS4xMTI1LDM2OS43NSBMMjkuMzYyNSwzNjkuNzUgUTI5LjM2MjUsMzY5Ljc1IDI5LjM2MjUsMzc4LjkzNzUgTDMxLjExMjUsMzc4LjkzNzUgWiBNMzQuNjc1LDM3OC45Mzc1IEwzNi40MjUsMzc4LjkzNzUgUTM2LjQyNSwzNzguOTM3NSAzNi40MjUsMzc2LjEyNSBMMzQuNjc1LDM3Ni4xMjUgUTM0LjY3NSwzNzYuMTI1IDM0LjY3NSwzNzguOTM3NSBaIE0zNC42NzUsMzY5Ljc1IFEzNC42NzUsMzY5Ljc1IDM0LjY3NSwzNzIuNTYyNSBMMzYuNDI1LDM3Mi41NjI1IFEzNi40MjUsMzcyLjU2MjUgMzYuNDI1LDM2OS43NSBMMzQuNjc1LDM2OS43NSBaIE0zMC40MjUsMzcwLjQzNzUgTDM1LjM2MjUsMzcwLjQzNzUgTDM1LjM2MjUsMzY4LjY4NzUgTDMwLjQyNSwzNjguNjg3NSBMMzAuNDI1LDM3MC40Mzc1IFogIiBmaWxsPSIjMDAwMDAwIi8+PHRleHQgZmlsbD0iIzAwMDAwMCIgZm9udC1mYW1pbHk9InNhbnMtc2VyaWYiIGZvbnQtc2l6ZT0iMTQiIGxlbmd0aEFkanVzdD0ic3BhY2luZyIgdGV4dExlbmd0aD0iMTQwIiB4PSI0OS4yIiB5PSIzNzkuNzQyMiI+U3RhbmRhcmRGYXJlU3RyYXRlZ3k8L3RleHQ+PGxpbmUgc3R5bGU9InN0cm9rZTojMTgxODE4O3N0cm9rZS13aWR0aDowLjU7IiB4MT0iOCIgeDI9IjIwMiIgeTE9IjM5MCIgeTI9IjM5MCIvPjxsaW5lIHN0eWxlPSJzdHJva2U6IzE4MTgxODtzdHJva2Utd2lkdGg6MC41OyIgeDE9IjgiIHgyPSIyMDIiIHkxPSIzOTgiIHkyPSIzOTgiLz48ZWxsaXBzZSBjeD0iMTgiIGN5PSI0MTAuOTkyMiIgZmlsbD0iIzg0QkU4NCIgcng9IjMiIHJ5PSIzIiBzdHlsZT0ic3Ryb2tlOiMwMzgwNDg7c3Ryb2tlLXdpZHRoOjEuMDsiLz48dGV4dCBmaWxsPSIjMDAwMDAwIiBmb250LWZhbWlseT0ic2Fucy1zZXJpZiIgZm9udC1zaXplPSIxNCIgbGVuZ3RoQWRqdXN0PSJzcGFjaW5nIiB0ZXh0TGVuZ3RoPSIxNzAiIHg9IjI3IiB5PSI0MTUuMjM0NCI+Y2FsY3VsYXRlX2ZhcmUoZGlzdGFuY2UpPC90ZXh0PjwvZz48IS0tY2xhc3MgUHJlbWl1bUZhcmVTdHJhdGVneS0tPjxnIGlkPSJlbGVtX1ByZW1pdW1GYXJlU3RyYXRlZ3kiPjxyZWN0IGNvZGVMaW5lPSIxMSIgZmlsbD0iI0YxRjFGMSIgaGVpZ2h0PSI2Mi45ODQ0IiBpZD0iUHJlbWl1bUZhcmVTdHJhdGVneSIgcng9IjIuNSIgcnk9IjIuNSIgc3R5bGU9InN0cm9rZTojMTgxODE4O3N0cm9rZS13aWR0aDowLjU7IiB3aWR0aD0iMTk2IiB4PSIyMzgiIHk9IjM1OCIvPjxlbGxpcHNlIGN4PSIyNjYuMDUiIGN5PSIzNzQiIGZpbGw9IiNBREQxQjIiIHJ4PSIxMSIgcnk9IjExIiBzdHlsZT0ic3Ryb2tlOiMxODE4MTg7c3Ryb2tlLXdpZHRoOjEuMDsiLz48cGF0aCBkPSJNMjYzLjY3NSwzNzguMjUgTDI2My42NzUsMzgwIEwyNjguNjEyNSwzODAgTDI2OC42MTI1LDM3OC4yNSBMMjYzLjY3NSwzNzguMjUgWiBNMjY0LjM2MjUsMzc4LjkzNzUgUTI2NC4zNjI1LDM3OC45Mzc1IDI2NC4zNjI1LDM2OS43NSBMMjYyLjYxMjUsMzY5Ljc1IFEyNjIuNjEyNSwzNjkuNzUgMjYyLjYxMjUsMzc4LjkzNzUgTDI2NC4zNjI1LDM3OC45Mzc1IFogTTI2Ny45MjUsMzc4LjkzNzUgTDI2OS42NzUsMzc4LjkzNzUgUTI2OS42NzUsMzc4LjkzNzUgMjY5LjY3NSwzNzYuMTI1IEwyNjcuOTI1LDM3Ni4xMjUgUTI2Ny45MjUsMzc2LjEyNSAyNjcuOTI1LDM3OC45Mzc1IFogTTI2Ny45MjUsMzY5Ljc1IFEyNjcuOTI1LDM2OS43NSAyNjcuOTI1LDM3Mi41NjI1IEwyNjkuNjc1LDM3Mi41NjI1IFEyNjkuNjc1LDM3Mi41NjI1IDI2OS42NzUsMzY5Ljc1IEwyNjcuOTI1LDM2OS43NSBaIE0yNjMuNjc1LDM3MC40Mzc1IEwyNjguNjEyNSwzNzAuNDM3NSBMMjY4LjYxMjUsMzY4LjY4NzUgTDI2My42NzUsMzY4LjY4NzUgTDI2My42NzUsMzcwLjQzNzUgWiAiIGZpbGw9IiMwMDAwMDAiLz48dGV4dCBmaWxsPSIjMDAwMDAwIiBmb250LWZhbWlseT0ic2Fucy1zZXJpZiIgZm9udC1zaXplPSIxNCIgbGVuZ3RoQWRqdXN0PSJzcGFjaW5nIiB0ZXh0TGVuZ3RoPSIxMzUiIHg9IjI4Mi45NSIgeT0iMzc5Ljc0MjIiPlByZW1pdW1GYXJlU3RyYXRlZ3k8L3RleHQ+PGxpbmUgc3R5bGU9InN0cm9rZTojMTgxODE4O3N0cm9rZS13aWR0aDowLjU7IiB4MT0iMjM5IiB4Mj0iNDMzIiB5MT0iMzkwIiB5Mj0iMzkwIi8+PGxpbmUgc3R5bGU9InN0cm9rZTojMTgxODE4O3N0cm9rZS13aWR0aDowLjU7IiB4MT0iMjM5IiB4Mj0iNDMzIiB5MT0iMzk4IiB5Mj0iMzk4Ii8+PGVsbGlwc2UgY3g9IjI0OSIgY3k9IjQxMC45OTIyIiBmaWxsPSIjODRCRTg0IiByeD0iMyIgcnk9IjMiIHN0eWxlPSJzdHJva2U6IzAzODA0ODtzdHJva2Utd2lkdGg6MS4wOyIvPjx0ZXh0IGZpbGw9IiMwMDAwMDAiIGZvbnQtZmFtaWx5PSJzYW5zLXNlcmlmIiBmb250LXNpemU9IjE0IiBsZW5ndGhBZGp1c3Q9InNwYWNpbmciIHRleHRMZW5ndGg9IjE3MCIgeD0iMjU4IiB5PSI0MTUuMjM0NCI+Y2FsY3VsYXRlX2ZhcmUoZGlzdGFuY2UpPC90ZXh0PjwvZz48IS0tY2xhc3MgU2hhcmVkRmFyZVN0cmF0ZWd5LS0+PGcgaWQ9ImVsZW1fU2hhcmVkRmFyZVN0cmF0ZWd5Ij48cmVjdCBjb2RlTGluZT0iMTUiIGZpbGw9IiNGMUYxRjEiIGhlaWdodD0iNjIuOTg0NCIgaWQ9IlNoYXJlZEZhcmVTdHJhdGVneSIgcng9IjIuNSIgcnk9IjIuNSIgc3R5bGU9InN0cm9rZTojMTgxODE4O3N0cm9rZS13aWR0aDowLjU7IiB3aWR0aD0iMTk2IiB4PSI0NjkiIHk9IjM1OCIvPjxlbGxpcHNlIGN4PSI1MDEuMSIgY3k9IjM3NCIgZmlsbD0iI0FERDFCMiIgcng9IjExIiByeT0iMTEiIHN0eWxlPSJzdHJva2U6IzE4MTgxODtzdHJva2Utd2lkdGg6MS4wOyIvPjxwYXRoIGQ9Ik00OTguNzI1LDM3OC4yNSBMNDk4LjcyNSwzODAgTDUwMy42NjI1LDM4MCBMNTAzLjY2MjUsMzc4LjI1IEw0OTguNzI1LDM3OC4yNSBaIE00OTkuNDEyNSwzNzguOTM3NSBRNDk5LjQxMjUsMzc4LjkzNzUgNDk5LjQxMjUsMzY5Ljc1IEw0OTcuNjYyNSwzNjkuNzUgUTQ5Ny42NjI1LDM2OS43NSA0OTcuNjYyNSwzNzguOTM3NSBMNDk5LjQxMjUsMzc4LjkzNzUgWiBNNTAyLjk3NSwzNzguOTM3NSBMNTA0LjcyNSwzNzguOTM3NSBRNTA0LjcyNSwzNzguOTM3NSA1MDQuNzI1LDM3Ni4xMjUgTDUwMi45NzUsMzc2LjEyNSBRNTAyLjk3NSwzNzYuMTI1IDUwMi45NzUsMzc4LjkzNzUgWiBNNTAyLjk3NSwzNjkuNzUgUTUwMi45NzUsMzY5Ljc1IDUwMi45NzUsMzcyLjU2MjUgTDUwNC43MjUsMzcyLjU2MjUgUTUwNC43MjUsMzcyLjU2MjUgNTA0LjcyNSwzNjkuNzUgTDUwMi45NzUsMzY5Ljc1IFogTTQ5OC43MjUsMzcwLjQzNzUgTDUwMy42NjI1LDM3MC40Mzc1IEw1MDMuNjYyNSwzNjguNjg3NSBMNDk4LjcyNSwzNjguNjg3NSBMNDk4LjcyNSwzNzAuNDM3NSBaICIgZmlsbD0iIzAwMDAwMCIvPjx0ZXh0IGZpbGw9IiMwMDAwMDAiIGZvbnQtZmFtaWx5PSJzYW5zLXNlcmlmIiBmb250LXNpemU9IjE0IiBsZW5ndGhBZGp1c3Q9InNwYWNpbmciIHRleHRMZW5ndGg9IjEyNiIgeD0iNTE4LjkiIHk9IjM3OS43NDIyIj5TaGFyZWRGYXJlU3RyYXRlZ3k8L3RleHQ+PGxpbmUgc3R5bGU9InN0cm9rZTojMTgxODE4O3N0cm9rZS13aWR0aDowLjU7IiB4MT0iNDcwIiB4Mj0iNjY0IiB5MT0iMzkwIiB5Mj0iMzkwIi8+PGxpbmUgc3R5bGU9InN0cm9rZTojMTgxODE4O3N0cm9rZS13aWR0aDowLjU7IiB4MT0iNDcwIiB4Mj0iNjY0IiB5MT0iMzk4IiB5Mj0iMzk4Ii8+PGVsbGlwc2UgY3g9IjQ4MCIgY3k9IjQxMC45OTIyIiBmaWxsPSIjODRCRTg0IiByeD0iMyIgcnk9IjMiIHN0eWxlPSJzdHJva2U6IzAzODA0ODtzdHJva2Utd2lkdGg6MS4wOyIvPjx0ZXh0IGZpbGw9IiMwMDAwMDAiIGZvbnQtZmFtaWx5PSJzYW5zLXNlcmlmIiBmb250LXNpemU9IjE0IiBsZW5ndGhBZGp1c3Q9InNwYWNpbmciIHRleHRMZW5ndGg9IjE3MCIgeD0iNDg5IiB5PSI0MTUuMjM0NCI+Y2FsY3VsYXRlX2ZhcmUoZGlzdGFuY2UpPC90ZXh0PjwvZz48IS0tY2xhc3MgUmlkZS0tPjxnIGlkPSJlbGVtX1JpZGUiPjxyZWN0IGNvZGVMaW5lPSIyMCIgZmlsbD0iI0YxRjFGMSIgaGVpZ2h0PSIxNjcuODc1IiBpZD0iUmlkZSIgcng9IjIuNSIgcnk9IjIuNSIgc3R5bGU9InN0cm9rZTojMTgxODE4O3N0cm9rZS13aWR0aDowLjU7IiB3aWR0aD0iMjE1IiB4PSIyMjguNSIgeT0iNyIvPjxlbGxpcHNlIGN4PSIzMTcuNzUiIGN5PSIyMyIgZmlsbD0iI0FERDFCMiIgcng9IjExIiByeT0iMTEiIHN0eWxlPSJzdHJva2U6IzE4MTgxODtzdHJva2Utd2lkdGg6MS4wOyIvPjxwYXRoIGQ9Ik0zMTUuMzc1LDI3LjI1IEwzMTUuMzc1LDI5IEwzMjAuMzEyNSwyOSBMMzIwLjMxMjUsMjcuMjUgTDMxNS4zNzUsMjcuMjUgWiBNMzE2LjA2MjUsMjcuOTM3NSBRMzE2LjA2MjUsMjcuOTM3NSAzMTYuMDYyNSwxOC43NSBMMzE0LjMxMjUsMTguNzUgUTMxNC4zMTI1LDE4Ljc1IDMxNC4zMTI1LDI3LjkzNzUgTDMxNi4wNjI1LDI3LjkzNzUgWiBNMzE5LjYyNSwyNy45Mzc1IEwzMjEuMzc1LDI3LjkzNzUgUTMyMS4zNzUsMjcuOTM3NSAzMjEuMzc1LDI1LjEyNSBMMzE5LjYyNSwyNS4xMjUgUTMxOS42MjUsMjUuMTI1IDMxOS42MjUsMjcuOTM3NSBaIE0zMTkuNjI1LDE4Ljc1IFEzMTkuNjI1LDE4Ljc1IDMxOS42MjUsMjEuNTYyNSBMMzIxLjM3NSwyMS41NjI1IFEzMjEuMzc1LDIxLjU2MjUgMzIxLjM3NSwxOC43NSBMMzE5LjYyNSwxOC43NSBaIE0zMTUuMzc1LDE5LjQzNzUgTDMyMC4zMTI1LDE5LjQzNzUgTDMyMC4zMTI1LDE3LjY4NzUgTDMxNS4zNzUsMTcuNjg3NSBMMzE1LjM3NSwxOS40Mzc1IFogIiBmaWxsPSIjMDAwMDAwIi8+PHRleHQgZmlsbD0iIzAwMDAwMCIgZm9udC1mYW1pbHk9InNhbnMtc2VyaWYiIGZvbnQtc2l6ZT0iMTQiIGxlbmd0aEFkanVzdD0ic3BhY2luZyIgdGV4dExlbmd0aD0iMjgiIHg9IjMzOC4yNSIgeT0iMjguNzQyMiI+UmlkZTwvdGV4dD48bGluZSBzdHlsZT0ic3Ryb2tlOiMxODE4MTg7c3Ryb2tlLXdpZHRoOjAuNTsiIHgxPSIyMjkuNSIgeDI9IjQ0Mi41IiB5MT0iMzkiIHkyPSIzOSIvPjxyZWN0IGZpbGw9Im5vbmUiIGhlaWdodD0iNiIgc3R5bGU9InN0cm9rZTojQzgyOTMwO3N0cm9rZS13aWR0aDoxLjA7IiB3aWR0aD0iNiIgeD0iMjM2LjUiIHk9IjQ4Ljk5MjIiLz48dGV4dCBmaWxsPSIjMDAwMDAwIiBmb250LWZhbWlseT0ic2Fucy1zZXJpZiIgZm9udC1zaXplPSIxNCIgbGVuZ3RoQWRqdXN0PSJzcGFjaW5nIiB0ZXh0TGVuZ3RoPSI0MiIgeD0iMjQ4LjUiIHk9IjU2LjIzNDQiPmRyaXZlcjwvdGV4dD48cmVjdCBmaWxsPSJub25lIiBoZWlnaHQ9IjYiIHN0eWxlPSJzdHJva2U6I0M4MjkzMDtzdHJva2Utd2lkdGg6MS4wOyIgd2lkdGg9IjYiIHg9IjIzNi41IiB5PSI2My45NzY2Ii8+PHRleHQgZmlsbD0iIzAwMDAwMCIgZm9udC1mYW1pbHk9InNhbnMtc2VyaWYiIGZvbnQtc2l6ZT0iMTQiIGxlbmd0aEFkanVzdD0ic3BhY2luZyIgdGV4dExlbmd0aD0iNjMiIHg9IjI0OC41IiB5PSI3MS4yMTg4Ij5wYXNzZW5nZXI8L3RleHQ+PHJlY3QgZmlsbD0ibm9uZSIgaGVpZ2h0PSI2IiBzdHlsZT0ic3Ryb2tlOiNDODI5MzA7c3Ryb2tlLXdpZHRoOjEuMDsiIHdpZHRoPSI2IiB4PSIyMzYuNSIgeT0iNzguOTYwOSIvPjx0ZXh0IGZpbGw9IiMwMDAwMDAiIGZvbnQtZmFtaWx5PSJzYW5zLXNlcmlmIiBmb250LXNpemU9IjE0IiBsZW5ndGhBZGp1c3Q9InNwYWNpbmciIHRleHRMZW5ndGg9IjQyIiB4PSIyNDguNSIgeT0iODYuMjAzMSI+b3JpZ2luPC90ZXh0PjxyZWN0IGZpbGw9Im5vbmUiIGhlaWdodD0iNiIgc3R5bGU9InN0cm9rZTojQzgyOTMwO3N0cm9rZS13aWR0aDoxLjA7IiB3aWR0aD0iNiIgeD0iMjM2LjUiIHk9IjkzLjk0NTMiLz48dGV4dCBmaWxsPSIjMDAwMDAwIiBmb250LWZhbWlseT0ic2Fucy1zZXJpZiIgZm9udC1zaXplPSIxNCIgbGVuZ3RoQWRqdXN0PSJzcGFjaW5nIiB0ZXh0TGVuZ3RoPSI3NyIgeD0iMjQ4LjUiIHk9IjEwMS4xODc1Ij5kZXN0aW5hdGlvbjwvdGV4dD48cmVjdCBmaWxsPSJub25lIiBoZWlnaHQ9IjYiIHN0eWxlPSJzdHJva2U6I0M4MjkzMDtzdHJva2Utd2lkdGg6MS4wOyIgd2lkdGg9IjYiIHg9IjIzNi41IiB5PSIxMDguOTI5NyIvPjx0ZXh0IGZpbGw9IiMwMDAwMDAiIGZvbnQtZmFtaWx5PSJzYW5zLXNlcmlmIiBmb250LXNpemU9IjE0IiBsZW5ndGhBZGp1c3Q9InNwYWNpbmciIHRleHRMZW5ndGg9IjU2IiB4PSIyNDguNSIgeT0iMTE2LjE3MTkiPmRpc3RhbmNlPC90ZXh0PjxyZWN0IGZpbGw9Im5vbmUiIGhlaWdodD0iNiIgc3R5bGU9InN0cm9rZTojQzgyOTMwO3N0cm9rZS13aWR0aDoxLjA7IiB3aWR0aD0iNiIgeD0iMjM2LjUiIHk9IjEyMy45MTQxIi8+PHRleHQgZmlsbD0iIzAwMDAwMCIgZm9udC1mYW1pbHk9InNhbnMtc2VyaWYiIGZvbnQtc2l6ZT0iMTQiIGxlbmd0aEFkanVzdD0ic3BhY2luZyIgdGV4dExlbmd0aD0iMTg5IiB4PSIyNDguNSIgeT0iMTMxLjE1NjMiPmZhcmVfc3RyYXRlZ3k6IEZhcmVTdHJhdGVneTwvdGV4dD48bGluZSBzdHlsZT0ic3Ryb2tlOiMxODE4MTg7c3Ryb2tlLXdpZHRoOjAuNTsiIHgxPSIyMjkuNSIgeDI9IjQ0Mi41IiB5MT0iMTM2LjkwNjMiIHkyPSIxMzYuOTA2MyIvPjxlbGxpcHNlIGN4PSIyMzkuNSIgY3k9IjE0OS44OTg0IiBmaWxsPSIjODRCRTg0IiByeD0iMyIgcnk9IjMiIHN0eWxlPSJzdHJva2U6IzAzODA0ODtzdHJva2Utd2lkdGg6MS4wOyIvPjx0ZXh0IGZpbGw9IiMwMDAwMDAiIGZvbnQtZmFtaWx5PSJzYW5zLXNlcmlmIiBmb250LXNpemU9IjE0IiBsZW5ndGhBZGp1c3Q9InNwYWNpbmciIHRleHRMZW5ndGg9IjExNCIgeD0iMjQ4LjUiIHk9IjE1NC4xNDA2Ij5jYWxjdWxhdGVfZmFyZSgpPC90ZXh0PjxlbGxpcHNlIGN4PSIyMzkuNSIgY3k9IjE2NC44ODI4IiBmaWxsPSIjODRCRTg0IiByeD0iMyIgcnk9IjMiIHN0eWxlPSJzdHJva2U6IzAzODA0ODtzdHJva2Utd2lkdGg6MS4wOyIvPjx0ZXh0IGZpbGw9IiMwMDAwMDAiIGZvbnQtZmFtaWx5PSJzYW5zLXNlcmlmIiBmb250LXNpemU9IjE0IiBsZW5ndGhBZGp1c3Q9InNwYWNpbmciIHRleHRMZW5ndGg9IjEyOCIgeD0iMjQ4LjUiIHk9IjE2OS4xMjUiPmdldF9yaWRlX2RldGFpbHMoKTwvdGV4dD48L2c+PCEtLXJldmVyc2UgbGluayBGYXJlU3RyYXRlZ3kgdG8gU3RhbmRhcmRGYXJlU3RyYXRlZ3ktLT48ZyBpZD0ibGlua19GYXJlU3RyYXRlZ3lfU3RhbmRhcmRGYXJlU3RyYXRlZ3kiPjxwYXRoIGNvZGVMaW5lPSIzMiIgZD0iTTI2MS43NjYyLDMwNi4zODQzIEMyMjYuNzQ2MiwzMjQuNzM0MyAxOTguMjksMzM5LjY0IDE2My4yNywzNTcuOTggIiBmaWxsPSJub25lIiBpZD0iRmFyZVN0cmF0ZWd5LWJhY2t0by1TdGFuZGFyZEZhcmVTdHJhdGVneSIgc3R5bGU9InN0cm9rZTojMTgxODE4O3N0cm9rZS13aWR0aDoxLjA7c3Ryb2tlLWRhc2hhcnJheTo3LjAsNy4wOyIvPjxwb2x5Z29uIGZpbGw9Im5vbmUiIHBvaW50cz0iMjc3LjcxLDI5OC4wMywyNTguOTgxNCwzMDEuMDY5NywyNjQuNTUxLDMxMS42OTg5LDI3Ny43MSwyOTguMDMiIHN0eWxlPSJzdHJva2U6IzE4MTgxODtzdHJva2Utd2lkdGg6MS4wOyIvPjwvZz48IS0tcmV2ZXJzZSBsaW5rIEZhcmVTdHJhdGVneSB0byBQcmVtaXVtRmFyZVN0cmF0ZWd5LS0+PGcgaWQ9ImxpbmtfRmFyZVN0cmF0ZWd5X1ByZW1pdW1GYXJlU3RyYXRlZ3kiPjxwYXRoIGNvZGVMaW5lPSIzMyIgZD0iTTMzNiwzMTYuMDMgQzMzNiwzMzQuMzggMzM2LDMzOS42NCAzMzYsMzU3Ljk4ICIgZmlsbD0ibm9uZSIgaWQ9IkZhcmVTdHJhdGVneS1iYWNrdG8tUHJlbWl1bUZhcmVTdHJhdGVneSIgc3R5bGU9InN0cm9rZTojMTgxODE4O3N0cm9rZS13aWR0aDoxLjA7c3Ryb2tlLWRhc2hhcnJheTo3LjAsNy4wOyIvPjxwb2x5Z29uIGZpbGw9Im5vbmUiIHBvaW50cz0iMzM2LDI5OC4wMywzMzAsMzE2LjAzLDM0MiwzMTYuMDMsMzM2LDI5OC4wMyIgc3R5bGU9InN0cm9rZTojMTgxODE4O3N0cm9rZS13aWR0aDoxLjA7Ii8+PC9nPjwhLS1yZXZlcnNlIGxpbmsgRmFyZVN0cmF0ZWd5IHRvIFNoYXJlZEZhcmVTdHJhdGVneS0tPjxnIGlkPSJsaW5rX0ZhcmVTdHJhdGVneV9TaGFyZWRGYXJlU3RyYXRlZ3kiPjxwYXRoIGNvZGVMaW5lPSIzNCIgZD0iTTQxMC4yMzM4LDMwNi4zODQzIEM0NDUuMjUzOCwzMjQuNzM0MyA0NzMuNzEsMzM5LjY0IDUwOC43MywzNTcuOTggIiBmaWxsPSJub25lIiBpZD0iRmFyZVN0cmF0ZWd5LWJhY2t0by1TaGFyZWRGYXJlU3RyYXRlZ3kiIHN0eWxlPSJzdHJva2U6IzE4MTgxODtzdHJva2Utd2lkdGg6MS4wO3N0cm9rZS1kYXNoYXJyYXk6Ny4wLDcuMDsiLz48cG9seWdvbiBmaWxsPSJub25lIiBwb2ludHM9IjM5NC4yOSwyOTguMDMsNDA3LjQ0OSwzMTEuNjk4OSw0MTMuMDE4NiwzMDEuMDY5NywzOTQuMjksMjk4LjAzIiBzdHlsZT0ic3Ryb2tlOiMxODE4MTg7c3Ryb2tlLXdpZHRoOjEuMDsiLz48L2c+PCEtLWxpbmsgUmlkZSB0byBGYXJlU3RyYXRlZ3ktLT48ZyBpZD0ibGlua19SaWRlX0ZhcmVTdHJhdGVneSI+PHBhdGggY29kZUxpbmU9IjM3IiBkPSJNMzM2LDE3NS4xOSBDMzM2LDE5Ni40MSAzMzYsMjExLjkyIDMzNiwyMjguNjIgIiBmaWxsPSJub25lIiBpZD0iUmlkZS10by1GYXJlU3RyYXRlZ3kiIHN0eWxlPSJzdHJva2U6IzE4MTgxODtzdHJva2Utd2lkdGg6MS4wOyIvPjxwb2x5Z29uIGZpbGw9IiMxODE4MTgiIHBvaW50cz0iMzM2LDIzNC42MiwzNDAsMjI1LjYyLDMzNiwyMjkuNjIsMzMyLDIyNS42MiwzMzYsMjM0LjYyIiBzdHlsZT0ic3Ryb2tlOiMxODE4MTg7c3Ryb2tlLXdpZHRoOjEuMDsiLz48L2c+PCEtLVNSQz1bZEw1MUpXQ24zQnBkNVJ3cjVNZVZXMTBOMTE4dHI3dDBvYWd5WXdMaWpaWFBmMVB1NUtfV090WVJiQjlZQm9LZFBzb0ZuLUM1RjhQNHFrMDE3MDc1OTlZZVBKSVNPS2xtVzQ5TG5sVm1QYTNWYktMbDF3ekd0TVhzd0pXYzM5UE12aUVPMVRwX3E0SW1WUjEySVFFTldPMnhkUVVFV2JQRlU4dHI2MkRLWVppS1QtZDh0RnFhckY3R19RLXZValE0a3RwTkUtcWNzQkF3RG91dTlGUHlHMVcyX2Q5cHozUVhTOERic2g0LXl3LVR5Mmo5WmRVUWZEMlVsaHJtb3c2S0FIcTdKRG9WVzI4YV9xUGpUSGN1bHZ3UUV4VjZBZ0NqZkxmS0pFdHFIa3BaaWdvcjlPek1IcjRTalBfRlBsZGhDdlk5SkpWbGN5dGl2TVJBUGF1cUhfUmQ1Y1Q5RWR2S1hCNnROREdTcExvbFJvVEJWbUMwXS0tPjwvZz48L3N2Zz4=;" parent="1" vertex="1">
            <mxGeometry x="670" y="470" width="456.39" height="290" as="geometry" />
          </mxCell>
        </UserObject>
        <UserObject label="" plantUmlData="{&#xa;  &quot;data&quot;: &quot;@startuml\n\n&#39; Clase Ride\nclass Ride {\n    +ride_id\n    +driver\n    +passenger\n    +origin\n    +destination\n    +status\n    +toString()\n}\n\n&#39; Clase iteradora concreta\nclass RideIterator {\n    -rides: List&lt;Ride&gt;\n    -index: int\n    +RideIterator(rides: List&lt;Ride&gt;)\n    +next(): Ride\n}\n\n&#39; Clase colección concreta que es iterable\nclass RideHistory {\n    -rides: List&lt;Ride&gt;\n    +RideHistory()\n    +addRide(ride: Ride)\n    +createIterator(): RideIterator\n}\n\n&#39; Interfaz Iterator\ninterface Iterator {\n    +next()\n}\n\n&#39; Interfaz Iterable\ninterface Iterable {\n    +createIterator(): Iterator\n}\n\n&#39; Relaciones de implementación\nRideIterator ..|&gt; Iterator\nRideHistory ..|&gt; Iterable\n\n&#39; Relación de asociación\nRideHistory \&quot;0..*\&quot; --&gt; Ride\nRideIterator \&quot;1\&quot; *--&gt; \&quot;0..*\&quot; Ride\n\n@enduml\n&quot;,&#xa;  &quot;format&quot;: &quot;svg&quot;&#xa;}" id="8xXhik0c4usQAm_cwb4U-3">
          <mxCell style="shape=image;noLabel=1;verticalAlign=top;aspect=fixed;imageAspect=0;image=data:image/svg+xml,PD94bWwgdmVyc2lvbj0iMS4wIiBlbmNvZGluZz0idXMtYXNjaWkiIHN0YW5kYWxvbmU9Im5vIj8+PHN2ZyB4bWxucz0iaHR0cDovL3d3dy53My5vcmcvMjAwMC9zdmciIHhtbG5zOnhsaW5rPSJodHRwOi8vd3d3LnczLm9yZy8xOTk5L3hsaW5rIiBjb250ZW50U3R5bGVUeXBlPSJ0ZXh0L2NzcyIgaGVpZ2h0PSIzMzRweCIgcHJlc2VydmVBc3BlY3RSYXRpbz0ibm9uZSIgc3R5bGU9IndpZHRoOjU0M3B4O2hlaWdodDozMzRweDtiYWNrZ3JvdW5kOiNGRkZGRkY7IiB2ZXJzaW9uPSIxLjEiIHZpZXdCb3g9IjAgMCA1NDMgMzM0IiB3aWR0aD0iNTQzcHgiIHpvb21BbmRQYW49Im1hZ25pZnkiPjxkZWZzLz48Zz48IS0tY2xhc3MgUmlkZS0tPjxnIGlkPSJlbGVtX1JpZGUiPjxyZWN0IGNvZGVMaW5lPSIyIiBmaWxsPSIjRjFGMUYxIiBoZWlnaHQ9IjE1Mi44OTA2IiBpZD0iUmlkZSIgcng9IjIuNSIgcnk9IjIuNSIgc3R5bGU9InN0cm9rZTojMTgxODE4O3N0cm9rZS13aWR0aDowLjU7IiB3aWR0aD0iMTAzIiB4PSIxODYiIHk9IjE3NSIvPjxlbGxpcHNlIGN4PSIyMjAuMzUiIGN5PSIxOTEiIGZpbGw9IiNBREQxQjIiIHJ4PSIxMSIgcnk9IjExIiBzdHlsZT0ic3Ryb2tlOiMxODE4MTg7c3Ryb2tlLXdpZHRoOjEuMDsiLz48cGF0aCBkPSJNMjE3Ljk3NSwxOTUuMjUgTDIxNy45NzUsMTk3IEwyMjIuOTEyNSwxOTcgTDIyMi45MTI1LDE5NS4yNSBMMjE3Ljk3NSwxOTUuMjUgWiBNMjE4LjY2MjUsMTk1LjkzNzUgUTIxOC42NjI1LDE5NS45Mzc1IDIxOC42NjI1LDE4Ni43NSBMMjE2LjkxMjUsMTg2Ljc1IFEyMTYuOTEyNSwxODYuNzUgMjE2LjkxMjUsMTk1LjkzNzUgTDIxOC42NjI1LDE5NS45Mzc1IFogTTIyMi4yMjUsMTk1LjkzNzUgTDIyMy45NzUsMTk1LjkzNzUgUTIyMy45NzUsMTk1LjkzNzUgMjIzLjk3NSwxOTMuMTI1IEwyMjIuMjI1LDE5My4xMjUgUTIyMi4yMjUsMTkzLjEyNSAyMjIuMjI1LDE5NS45Mzc1IFogTTIyMi4yMjUsMTg2Ljc1IFEyMjIuMjI1LDE4Ni43NSAyMjIuMjI1LDE4OS41NjI1IEwyMjMuOTc1LDE4OS41NjI1IFEyMjMuOTc1LDE4OS41NjI1IDIyMy45NzUsMTg2Ljc1IEwyMjIuMjI1LDE4Ni43NSBaIE0yMTcuOTc1LDE4Ny40Mzc1IEwyMjIuOTEyNSwxODcuNDM3NSBMMjIyLjkxMjUsMTg1LjY4NzUgTDIxNy45NzUsMTg1LjY4NzUgTDIxNy45NzUsMTg3LjQzNzUgWiAiIGZpbGw9IiMwMDAwMDAiLz48dGV4dCBmaWxsPSIjMDAwMDAwIiBmb250LWZhbWlseT0ic2Fucy1zZXJpZiIgZm9udC1zaXplPSIxNCIgbGVuZ3RoQWRqdXN0PSJzcGFjaW5nIiB0ZXh0TGVuZ3RoPSIyOCIgeD0iMjM4LjY1IiB5PSIxOTYuNzQyMiI+UmlkZTwvdGV4dD48bGluZSBzdHlsZT0ic3Ryb2tlOiMxODE4MTg7c3Ryb2tlLXdpZHRoOjAuNTsiIHgxPSIxODciIHgyPSIyODgiIHkxPSIyMDciIHkyPSIyMDciLz48ZWxsaXBzZSBjeD0iMTk3IiBjeT0iMjE5Ljk5MjIiIGZpbGw9Im5vbmUiIHJ4PSIzIiByeT0iMyIgc3R5bGU9InN0cm9rZTojMDM4MDQ4O3N0cm9rZS13aWR0aDoxLjA7Ii8+PHRleHQgZmlsbD0iIzAwMDAwMCIgZm9udC1mYW1pbHk9InNhbnMtc2VyaWYiIGZvbnQtc2l6ZT0iMTQiIGxlbmd0aEFkanVzdD0ic3BhY2luZyIgdGV4dExlbmd0aD0iNDkiIHg9IjIwNiIgeT0iMjI0LjIzNDQiPnJpZGVfaWQ8L3RleHQ+PGVsbGlwc2UgY3g9IjE5NyIgY3k9IjIzNC45NzY2IiBmaWxsPSJub25lIiByeD0iMyIgcnk9IjMiIHN0eWxlPSJzdHJva2U6IzAzODA0ODtzdHJva2Utd2lkdGg6MS4wOyIvPjx0ZXh0IGZpbGw9IiMwMDAwMDAiIGZvbnQtZmFtaWx5PSJzYW5zLXNlcmlmIiBmb250LXNpemU9IjE0IiBsZW5ndGhBZGp1c3Q9InNwYWNpbmciIHRleHRMZW5ndGg9IjQyIiB4PSIyMDYiIHk9IjIzOS4yMTg4Ij5kcml2ZXI8L3RleHQ+PGVsbGlwc2UgY3g9IjE5NyIgY3k9IjI0OS45NjA5IiBmaWxsPSJub25lIiByeD0iMyIgcnk9IjMiIHN0eWxlPSJzdHJva2U6IzAzODA0ODtzdHJva2Utd2lkdGg6MS4wOyIvPjx0ZXh0IGZpbGw9IiMwMDAwMDAiIGZvbnQtZmFtaWx5PSJzYW5zLXNlcmlmIiBmb250LXNpemU9IjE0IiBsZW5ndGhBZGp1c3Q9InNwYWNpbmciIHRleHRMZW5ndGg9IjYzIiB4PSIyMDYiIHk9IjI1NC4yMDMxIj5wYXNzZW5nZXI8L3RleHQ+PGVsbGlwc2UgY3g9IjE5NyIgY3k9IjI2NC45NDUzIiBmaWxsPSJub25lIiByeD0iMyIgcnk9IjMiIHN0eWxlPSJzdHJva2U6IzAzODA0ODtzdHJva2Utd2lkdGg6MS4wOyIvPjx0ZXh0IGZpbGw9IiMwMDAwMDAiIGZvbnQtZmFtaWx5PSJzYW5zLXNlcmlmIiBmb250LXNpemU9IjE0IiBsZW5ndGhBZGp1c3Q9InNwYWNpbmciIHRleHRMZW5ndGg9IjQyIiB4PSIyMDYiIHk9IjI2OS4xODc1Ij5vcmlnaW48L3RleHQ+PGVsbGlwc2UgY3g9IjE5NyIgY3k9IjI3OS45Mjk3IiBmaWxsPSJub25lIiByeD0iMyIgcnk9IjMiIHN0eWxlPSJzdHJva2U6IzAzODA0ODtzdHJva2Utd2lkdGg6MS4wOyIvPjx0ZXh0IGZpbGw9IiMwMDAwMDAiIGZvbnQtZmFtaWx5PSJzYW5zLXNlcmlmIiBmb250LXNpemU9IjE0IiBsZW5ndGhBZGp1c3Q9InNwYWNpbmciIHRleHRMZW5ndGg9Ijc3IiB4PSIyMDYiIHk9IjI4NC4xNzE5Ij5kZXN0aW5hdGlvbjwvdGV4dD48ZWxsaXBzZSBjeD0iMTk3IiBjeT0iMjk0LjkxNDEiIGZpbGw9Im5vbmUiIHJ4PSIzIiByeT0iMyIgc3R5bGU9InN0cm9rZTojMDM4MDQ4O3N0cm9rZS13aWR0aDoxLjA7Ii8+PHRleHQgZmlsbD0iIzAwMDAwMCIgZm9udC1mYW1pbHk9InNhbnMtc2VyaWYiIGZvbnQtc2l6ZT0iMTQiIGxlbmd0aEFkanVzdD0ic3BhY2luZyIgdGV4dExlbmd0aD0iNDIiIHg9IjIwNiIgeT0iMjk5LjE1NjMiPnN0YXR1czwvdGV4dD48bGluZSBzdHlsZT0ic3Ryb2tlOiMxODE4MTg7c3Ryb2tlLXdpZHRoOjAuNTsiIHgxPSIxODciIHgyPSIyODgiIHkxPSIzMDQuOTA2MyIgeTI9IjMwNC45MDYzIi8+PGVsbGlwc2UgY3g9IjE5NyIgY3k9IjMxNy44OTg0IiBmaWxsPSIjODRCRTg0IiByeD0iMyIgcnk9IjMiIHN0eWxlPSJzdHJva2U6IzAzODA0ODtzdHJva2Utd2lkdGg6MS4wOyIvPjx0ZXh0IGZpbGw9IiMwMDAwMDAiIGZvbnQtZmFtaWx5PSJzYW5zLXNlcmlmIiBmb250LXNpemU9IjE0IiBsZW5ndGhBZGp1c3Q9InNwYWNpbmciIHRleHRMZW5ndGg9IjcyIiB4PSIyMDYiIHk9IjMyMi4xNDA2Ij50b1N0cmluZygpPC90ZXh0PjwvZz48IS0tY2xhc3MgUmlkZUl0ZXJhdG9yLS0+PGcgaWQ9ImVsZW1fUmlkZUl0ZXJhdG9yIj48cmVjdCBjb2RlTGluZT0iMTMiIGZpbGw9IiNGMUYxRjEiIGhlaWdodD0iMTA3LjkzNzUiIGlkPSJSaWRlSXRlcmF0b3IiIHJ4PSIyLjUiIHJ5PSIyLjUiIHN0eWxlPSJzdHJva2U6IzE4MTgxODtzdHJva2Utd2lkdGg6MC41OyIgd2lkdGg9IjI0NSIgeD0iNyIgeT0iNyIvPjxlbGxpcHNlIGN4PSI4My4yNSIgY3k9IjIzIiBmaWxsPSIjQUREMUIyIiByeD0iMTEiIHJ5PSIxMSIgc3R5bGU9InN0cm9rZTojMTgxODE4O3N0cm9rZS13aWR0aDoxLjA7Ii8+PHBhdGggZD0iTTgwLjg3NSwyNy4yNSBMODAuODc1LDI5IEw4NS44MTI1LDI5IEw4NS44MTI1LDI3LjI1IEw4MC44NzUsMjcuMjUgWiBNODEuNTYyNSwyNy45Mzc1IFE4MS41NjI1LDI3LjkzNzUgODEuNTYyNSwxOC43NSBMNzkuODEyNSwxOC43NSBRNzkuODEyNSwxOC43NSA3OS44MTI1LDI3LjkzNzUgTDgxLjU2MjUsMjcuOTM3NSBaIE04NS4xMjUsMjcuOTM3NSBMODYuODc1LDI3LjkzNzUgUTg2Ljg3NSwyNy45Mzc1IDg2Ljg3NSwyNS4xMjUgTDg1LjEyNSwyNS4xMjUgUTg1LjEyNSwyNS4xMjUgODUuMTI1LDI3LjkzNzUgWiBNODUuMTI1LDE4Ljc1IFE4NS4xMjUsMTguNzUgODUuMTI1LDIxLjU2MjUgTDg2Ljg3NSwyMS41NjI1IFE4Ni44NzUsMjEuNTYyNSA4Ni44NzUsMTguNzUgTDg1LjEyNSwxOC43NSBaIE04MC44NzUsMTkuNDM3NSBMODUuODEyNSwxOS40Mzc1IEw4NS44MTI1LDE3LjY4NzUgTDgwLjg3NSwxNy42ODc1IEw4MC44NzUsMTkuNDM3NSBaICIgZmlsbD0iIzAwMDAwMCIvPjx0ZXh0IGZpbGw9IiMwMDAwMDAiIGZvbnQtZmFtaWx5PSJzYW5zLXNlcmlmIiBmb250LXNpemU9IjE0IiBsZW5ndGhBZGp1c3Q9InNwYWNpbmciIHRleHRMZW5ndGg9Ijg0IiB4PSIxMDMuNzUiIHk9IjI4Ljc0MjIiPlJpZGVJdGVyYXRvcjwvdGV4dD48bGluZSBzdHlsZT0ic3Ryb2tlOiMxODE4MTg7c3Ryb2tlLXdpZHRoOjAuNTsiIHgxPSI4IiB4Mj0iMjUxIiB5MT0iMzkiIHkyPSIzOSIvPjxyZWN0IGZpbGw9Im5vbmUiIGhlaWdodD0iNiIgc3R5bGU9InN0cm9rZTojQzgyOTMwO3N0cm9rZS13aWR0aDoxLjA7IiB3aWR0aD0iNiIgeD0iMTUiIHk9IjQ4Ljk5MjIiLz48dGV4dCBmaWxsPSIjMDAwMDAwIiBmb250LWZhbWlseT0ic2Fucy1zZXJpZiIgZm9udC1zaXplPSIxNCIgbGVuZ3RoQWRqdXN0PSJzcGFjaW5nIiB0ZXh0TGVuZ3RoPSIxMTkiIHg9IjI3IiB5PSI1Ni4yMzQ0Ij5yaWRlczogTGlzdCZsdDtSaWRlJmd0OzwvdGV4dD48cmVjdCBmaWxsPSJub25lIiBoZWlnaHQ9IjYiIHN0eWxlPSJzdHJva2U6I0M4MjkzMDtzdHJva2Utd2lkdGg6MS4wOyIgd2lkdGg9IjYiIHg9IjE1IiB5PSI2My45NzY2Ii8+PHRleHQgZmlsbD0iIzAwMDAwMCIgZm9udC1mYW1pbHk9InNhbnMtc2VyaWYiIGZvbnQtc2l6ZT0iMTQiIGxlbmd0aEFkanVzdD0ic3BhY2luZyIgdGV4dExlbmd0aD0iNzAiIHg9IjI3IiB5PSI3MS4yMTg4Ij5pbmRleDogaW50PC90ZXh0PjxsaW5lIHN0eWxlPSJzdHJva2U6IzE4MTgxODtzdHJva2Utd2lkdGg6MC41OyIgeDE9IjgiIHgyPSIyNTEiIHkxPSI3Ni45Njg4IiB5Mj0iNzYuOTY4OCIvPjxlbGxpcHNlIGN4PSIxOCIgY3k9Ijg5Ljk2MDkiIGZpbGw9IiM4NEJFODQiIHJ4PSIzIiByeT0iMyIgc3R5bGU9InN0cm9rZTojMDM4MDQ4O3N0cm9rZS13aWR0aDoxLjA7Ii8+PHRleHQgZmlsbD0iIzAwMDAwMCIgZm9udC1mYW1pbHk9InNhbnMtc2VyaWYiIGZvbnQtc2l6ZT0iMTQiIGxlbmd0aEFkanVzdD0ic3BhY2luZyIgdGV4dExlbmd0aD0iMjE5IiB4PSIyNyIgeT0iOTQuMjAzMSI+UmlkZUl0ZXJhdG9yKHJpZGVzOiBMaXN0Jmx0O1JpZGUmZ3Q7KTwvdGV4dD48ZWxsaXBzZSBjeD0iMTgiIGN5PSIxMDQuOTQ1MyIgZmlsbD0iIzg0QkU4NCIgcng9IjMiIHJ5PSIzIiBzdHlsZT0ic3Ryb2tlOiMwMzgwNDg7c3Ryb2tlLXdpZHRoOjEuMDsiLz48dGV4dCBmaWxsPSIjMDAwMDAwIiBmb250LWZhbWlseT0ic2Fucy1zZXJpZiIgZm9udC1zaXplPSIxNCIgbGVuZ3RoQWRqdXN0PSJzcGFjaW5nIiB0ZXh0TGVuZ3RoPSI4NiIgeD0iMjciIHk9IjEwOS4xODc1Ij5uZXh0KCk6IFJpZGU8L3RleHQ+PC9nPjwhLS1jbGFzcyBSaWRlSGlzdG9yeS0tPjxnIGlkPSJlbGVtX1JpZGVIaXN0b3J5Ij48cmVjdCBjb2RlTGluZT0iMjEiIGZpbGw9IiNGMUYxRjEiIGhlaWdodD0iMTA3LjkzNzUiIGlkPSJSaWRlSGlzdG9yeSIgcng9IjIuNSIgcnk9IjIuNSIgc3R5bGU9InN0cm9rZTojMTgxODE4O3N0cm9rZS13aWR0aDowLjU7IiB3aWR0aD0iMjM4IiB4PSIyOTguNSIgeT0iNyIvPjxlbGxpcHNlIGN4PSIzNzQuNzUiIGN5PSIyMyIgZmlsbD0iI0FERDFCMiIgcng9IjExIiByeT0iMTEiIHN0eWxlPSJzdHJva2U6IzE4MTgxODtzdHJva2Utd2lkdGg6MS4wOyIvPjxwYXRoIGQ9Ik0zNzIuMzc1LDI3LjI1IEwzNzIuMzc1LDI5IEwzNzcuMzEyNSwyOSBMMzc3LjMxMjUsMjcuMjUgTDM3Mi4zNzUsMjcuMjUgWiBNMzczLjA2MjUsMjcuOTM3NSBRMzczLjA2MjUsMjcuOTM3NSAzNzMuMDYyNSwxOC43NSBMMzcxLjMxMjUsMTguNzUgUTM3MS4zMTI1LDE4Ljc1IDM3MS4zMTI1LDI3LjkzNzUgTDM3My4wNjI1LDI3LjkzNzUgWiBNMzc2LjYyNSwyNy45Mzc1IEwzNzguMzc1LDI3LjkzNzUgUTM3OC4zNzUsMjcuOTM3NSAzNzguMzc1LDI1LjEyNSBMMzc2LjYyNSwyNS4xMjUgUTM3Ni42MjUsMjUuMTI1IDM3Ni42MjUsMjcuOTM3NSBaIE0zNzYuNjI1LDE4Ljc1IFEzNzYuNjI1LDE4Ljc1IDM3Ni42MjUsMjEuNTYyNSBMMzc4LjM3NSwyMS41NjI1IFEzNzguMzc1LDIxLjU2MjUgMzc4LjM3NSwxOC43NSBMMzc2LjYyNSwxOC43NSBaIE0zNzIuMzc1LDE5LjQzNzUgTDM3Ny4zMTI1LDE5LjQzNzUgTDM3Ny4zMTI1LDE3LjY4NzUgTDM3Mi4zNzUsMTcuNjg3NSBMMzcyLjM3NSwxOS40Mzc1IFogIiBmaWxsPSIjMDAwMDAwIi8+PHRleHQgZmlsbD0iIzAwMDAwMCIgZm9udC1mYW1pbHk9InNhbnMtc2VyaWYiIGZvbnQtc2l6ZT0iMTQiIGxlbmd0aEFkanVzdD0ic3BhY2luZyIgdGV4dExlbmd0aD0iNzciIHg9IjM5NS4yNSIgeT0iMjguNzQyMiI+UmlkZUhpc3Rvcnk8L3RleHQ+PGxpbmUgc3R5bGU9InN0cm9rZTojMTgxODE4O3N0cm9rZS13aWR0aDowLjU7IiB4MT0iMjk5LjUiIHgyPSI1MzUuNSIgeTE9IjM5IiB5Mj0iMzkiLz48cmVjdCBmaWxsPSJub25lIiBoZWlnaHQ9IjYiIHN0eWxlPSJzdHJva2U6I0M4MjkzMDtzdHJva2Utd2lkdGg6MS4wOyIgd2lkdGg9IjYiIHg9IjMwNi41IiB5PSI0OC45OTIyIi8+PHRleHQgZmlsbD0iIzAwMDAwMCIgZm9udC1mYW1pbHk9InNhbnMtc2VyaWYiIGZvbnQtc2l6ZT0iMTQiIGxlbmd0aEFkanVzdD0ic3BhY2luZyIgdGV4dExlbmd0aD0iMTE5IiB4PSIzMTguNSIgeT0iNTYuMjM0NCI+cmlkZXM6IExpc3QmbHQ7UmlkZSZndDs8L3RleHQ+PGxpbmUgc3R5bGU9InN0cm9rZTojMTgxODE4O3N0cm9rZS13aWR0aDowLjU7IiB4MT0iMjk5LjUiIHgyPSI1MzUuNSIgeTE9IjYxLjk4NDQiIHkyPSI2MS45ODQ0Ii8+PGVsbGlwc2UgY3g9IjMwOS41IiBjeT0iNzQuOTc2NiIgZmlsbD0iIzg0QkU4NCIgcng9IjMiIHJ5PSIzIiBzdHlsZT0ic3Ryb2tlOiMwMzgwNDg7c3Ryb2tlLXdpZHRoOjEuMDsiLz48dGV4dCBmaWxsPSIjMDAwMDAwIiBmb250LWZhbWlseT0ic2Fucy1zZXJpZiIgZm9udC1zaXplPSIxNCIgbGVuZ3RoQWRqdXN0PSJzcGFjaW5nIiB0ZXh0TGVuZ3RoPSI5MyIgeD0iMzE4LjUiIHk9Ijc5LjIxODgiPlJpZGVIaXN0b3J5KCk8L3RleHQ+PGVsbGlwc2UgY3g9IjMwOS41IiBjeT0iODkuOTYwOSIgZmlsbD0iIzg0QkU4NCIgcng9IjMiIHJ5PSIzIiBzdHlsZT0ic3Ryb2tlOiMwMzgwNDg7c3Ryb2tlLXdpZHRoOjEuMDsiLz48dGV4dCBmaWxsPSIjMDAwMDAwIiBmb250LWZhbWlseT0ic2Fucy1zZXJpZiIgZm9udC1zaXplPSIxNCIgbGVuZ3RoQWRqdXN0PSJzcGFjaW5nIiB0ZXh0TGVuZ3RoPSIxMzUiIHg9IjMxOC41IiB5PSI5NC4yMDMxIj5hZGRSaWRlKHJpZGU6IFJpZGUpPC90ZXh0PjxlbGxpcHNlIGN4PSIzMDkuNSIgY3k9IjEwNC45NDUzIiBmaWxsPSIjODRCRTg0IiByeD0iMyIgcnk9IjMiIHN0eWxlPSJzdHJva2U6IzAzODA0ODtzdHJva2Utd2lkdGg6MS4wOyIvPjx0ZXh0IGZpbGw9IiMwMDAwMDAiIGZvbnQtZmFtaWx5PSJzYW5zLXNlcmlmIiBmb250LXNpemU9IjE0IiBsZW5ndGhBZGp1c3Q9InNwYWNpbmciIHRleHRMZW5ndGg9IjIxMiIgeD0iMzE4LjUiIHk9IjEwOS4xODc1Ij5jcmVhdGVJdGVyYXRvcigpOiBSaWRlSXRlcmF0b3I8L3RleHQ+PC9nPjwhLS1jbGFzcyBJdGVyYXRvci0tPjxnIGlkPSJlbGVtX0l0ZXJhdG9yIj48cmVjdCBjb2RlTGluZT0iMjkiIGZpbGw9IiNGMUYxRjEiIGhlaWdodD0iNjIuOTg0NCIgaWQ9Ikl0ZXJhdG9yIiByeD0iMi41IiByeT0iMi41IiBzdHlsZT0ic3Ryb2tlOiMxODE4MTg7c3Ryb2tlLXdpZHRoOjAuNTsiIHdpZHRoPSI4OCIgeD0iNjIuNSIgeT0iMjIwIi8+PGVsbGlwc2UgY3g9Ijc3LjUiIGN5PSIyMzYiIGZpbGw9IiNCNEE3RTUiIHJ4PSIxMSIgcnk9IjExIiBzdHlsZT0ic3Ryb2tlOiMxODE4MTg7c3Ryb2tlLXdpZHRoOjEuMDsiLz48cGF0aCBkPSJNODAuNjI1LDI0MiBMODAuNjI1LDI0MC4yNSBMNzguNSwyNDAuMjUgUTc4LjUsMjQwLjI1IDc4LjUsMjMyLjQzNzUgTDgwLjYyNSwyMzIuNDM3NSBMODAuNjI1LDIzMC42ODc1IEw3NC42MjUsMjMwLjY4NzUgTDc0LjYyNSwyMzIuNDM3NSBMNzYuNzUsMjMyLjQzNzUgUTc2Ljc1LDIzMi40Mzc1IDc2Ljc1LDI0MC4yNSBMNzQuNjI1LDI0MC4yNSBMNzQuNjI1LDI0MiBMODAuNjI1LDI0MiBaICIgZmlsbD0iIzAwMDAwMCIvPjx0ZXh0IGZpbGw9IiMwMDAwMDAiIGZvbnQtZmFtaWx5PSJzYW5zLXNlcmlmIiBmb250LXNpemU9IjE0IiBmb250LXN0eWxlPSJpdGFsaWMiIGxlbmd0aEFkanVzdD0ic3BhY2luZyIgdGV4dExlbmd0aD0iNTYiIHg9IjkxLjUiIHk9IjI0MS43NDIyIj5JdGVyYXRvcjwvdGV4dD48bGluZSBzdHlsZT0ic3Ryb2tlOiMxODE4MTg7c3Ryb2tlLXdpZHRoOjAuNTsiIHgxPSI2My41IiB4Mj0iMTQ5LjUiIHkxPSIyNTIiIHkyPSIyNTIiLz48bGluZSBzdHlsZT0ic3Ryb2tlOiMxODE4MTg7c3Ryb2tlLXdpZHRoOjAuNTsiIHgxPSI2My41IiB4Mj0iMTQ5LjUiIHkxPSIyNjAiIHkyPSIyNjAiLz48ZWxsaXBzZSBjeD0iNzMuNSIgY3k9IjI3Mi45OTIyIiBmaWxsPSIjODRCRTg0IiByeD0iMyIgcnk9IjMiIHN0eWxlPSJzdHJva2U6IzAzODA0ODtzdHJva2Utd2lkdGg6MS4wOyIvPjx0ZXh0IGZpbGw9IiMwMDAwMDAiIGZvbnQtZmFtaWx5PSJzYW5zLXNlcmlmIiBmb250LXNpemU9IjE0IiBsZW5ndGhBZGp1c3Q9InNwYWNpbmciIHRleHRMZW5ndGg9IjQ0IiB4PSI4Mi41IiB5PSIyNzcuMjM0NCI+bmV4dCgpPC90ZXh0PjwvZz48IS0tY2xhc3MgSXRlcmFibGUtLT48ZyBpZD0iZWxlbV9JdGVyYWJsZSI+PHJlY3QgY29kZUxpbmU9IjM0IiBmaWxsPSIjRjFGMUYxIiBoZWlnaHQ9IjYyLjk4NDQiIGlkPSJJdGVyYWJsZSIgcng9IjIuNSIgcnk9IjIuNSIgc3R5bGU9InN0cm9rZTojMTgxODE4O3N0cm9rZS13aWR0aDowLjU7IiB3aWR0aD0iMjEwIiB4PSIzMjQuNSIgeT0iMjIwIi8+PGVsbGlwc2UgY3g9IjM5Ny4yNSIgY3k9IjIzNiIgZmlsbD0iI0I0QTdFNSIgcng9IjExIiByeT0iMTEiIHN0eWxlPSJzdHJva2U6IzE4MTgxODtzdHJva2Utd2lkdGg6MS4wOyIvPjxwYXRoIGQ9Ik00MDAuMzc1LDI0MiBMNDAwLjM3NSwyNDAuMjUgTDM5OC4yNSwyNDAuMjUgUTM5OC4yNSwyNDAuMjUgMzk4LjI1LDIzMi40Mzc1IEw0MDAuMzc1LDIzMi40Mzc1IEw0MDAuMzc1LDIzMC42ODc1IEwzOTQuMzc1LDIzMC42ODc1IEwzOTQuMzc1LDIzMi40Mzc1IEwzOTYuNSwyMzIuNDM3NSBRMzk2LjUsMjMyLjQzNzUgMzk2LjUsMjQwLjI1IEwzOTQuMzc1LDI0MC4yNSBMMzk0LjM3NSwyNDIgTDQwMC4zNzUsMjQyIFogIiBmaWxsPSIjMDAwMDAwIi8+PHRleHQgZmlsbD0iIzAwMDAwMCIgZm9udC1mYW1pbHk9InNhbnMtc2VyaWYiIGZvbnQtc2l6ZT0iMTQiIGZvbnQtc3R5bGU9Iml0YWxpYyIgbGVuZ3RoQWRqdXN0PSJzcGFjaW5nIiB0ZXh0TGVuZ3RoPSI1NiIgeD0iNDE3Ljc1IiB5PSIyNDEuNzQyMiI+SXRlcmFibGU8L3RleHQ+PGxpbmUgc3R5bGU9InN0cm9rZTojMTgxODE4O3N0cm9rZS13aWR0aDowLjU7IiB4MT0iMzI1LjUiIHgyPSI1MzMuNSIgeTE9IjI1MiIgeTI9IjI1MiIvPjxsaW5lIHN0eWxlPSJzdHJva2U6IzE4MTgxODtzdHJva2Utd2lkdGg6MC41OyIgeDE9IjMyNS41IiB4Mj0iNTMzLjUiIHkxPSIyNjAiIHkyPSIyNjAiLz48ZWxsaXBzZSBjeD0iMzM1LjUiIGN5PSIyNzIuOTkyMiIgZmlsbD0iIzg0QkU4NCIgcng9IjMiIHJ5PSIzIiBzdHlsZT0ic3Ryb2tlOiMwMzgwNDg7c3Ryb2tlLXdpZHRoOjEuMDsiLz48dGV4dCBmaWxsPSIjMDAwMDAwIiBmb250LWZhbWlseT0ic2Fucy1zZXJpZiIgZm9udC1zaXplPSIxNCIgbGVuZ3RoQWRqdXN0PSJzcGFjaW5nIiB0ZXh0TGVuZ3RoPSIxODQiIHg9IjM0NC41IiB5PSIyNzcuMjM0NCI+Y3JlYXRlSXRlcmF0b3IoKTogSXRlcmF0b3I8L3RleHQ+PC9nPjwhLS1saW5rIFJpZGVJdGVyYXRvciB0byBJdGVyYXRvci0tPjxnIGlkPSJsaW5rX1JpZGVJdGVyYXRvcl9JdGVyYXRvciI+PHBhdGggY29kZUxpbmU9IjM5IiBkPSJNMTIzLjAzLDExNS4wMSBDMTE4LjksMTQ4Ljg4IDExNS44NzI5LDE3My43MjI5IDExMi40MTI5LDIwMi4wNDI5ICIgZmlsbD0ibm9uZSIgaWQ9IlJpZGVJdGVyYXRvci10by1JdGVyYXRvciIgc3R5bGU9InN0cm9rZTojMTgxODE4O3N0cm9rZS13aWR0aDoxLjA7c3Ryb2tlLWRhc2hhcnJheTo3LjAsNy4wOyIvPjxwb2x5Z29uIGZpbGw9Im5vbmUiIHBvaW50cz0iMTEwLjIzLDIxOS45MSwxMTguMzY4NiwyMDIuNzcwNSwxMDYuNDU3MiwyMDEuMzE1MiwxMTAuMjMsMjE5LjkxIiBzdHlsZT0ic3Ryb2tlOiMxODE4MTg7c3Ryb2tlLXdpZHRoOjEuMDsiLz48L2c+PCEtLWxpbmsgUmlkZUhpc3RvcnkgdG8gSXRlcmFibGUtLT48ZyBpZD0ibGlua19SaWRlSGlzdG9yeV9JdGVyYWJsZSI+PHBhdGggY29kZUxpbmU9IjQwIiBkPSJNNDIwLjg3LDExNS4wMSBDNDIzLjAzLDE0OC44OCA0MjQuNjA4MiwxNzMuNjI2MiA0MjYuNDA4MiwyMDEuOTQ2MiAiIGZpbGw9Im5vbmUiIGlkPSJSaWRlSGlzdG9yeS10by1JdGVyYWJsZSIgc3R5bGU9InN0cm9rZTojMTgxODE4O3N0cm9rZS13aWR0aDoxLjA7c3Ryb2tlLWRhc2hhcnJheTo3LjAsNy4wOyIvPjxwb2x5Z29uIGZpbGw9Im5vbmUiIHBvaW50cz0iNDI3LjU1LDIxOS45MSw0MzIuMzk2MiwyMDEuNTY1Nyw0MjAuNDIwMywyMDIuMzI2OCw0MjcuNTUsMjE5LjkxIiBzdHlsZT0ic3Ryb2tlOiMxODE4MTg7c3Ryb2tlLXdpZHRoOjEuMDsiLz48L2c+PCEtLWxpbmsgUmlkZUhpc3RvcnkgdG8gUmlkZS0tPjxnIGlkPSJsaW5rX1JpZGVIaXN0b3J5X1JpZGUiPjxwYXRoIGNvZGVMaW5lPSI0MyIgZD0iTTM2NS4xOSwxMTUuMiBDMzQ2Ljg1LDEzNCAzMjYuMTcsMTU1LjM1IDMwNy41LDE3NSBDMzAxLjU5LDE4MS4yMiAyOTkuNTM1OCwxODMuMzc1NSAyOTMuNDM1OCwxODkuOTA1NSAiIGZpbGw9Im5vbmUiIGlkPSJSaWRlSGlzdG9yeS10by1SaWRlIiBzdHlsZT0ic3Ryb2tlOiMxODE4MTg7c3Ryb2tlLXdpZHRoOjEuMDsiLz48cG9seWdvbiBmaWxsPSIjMTgxODE4IiBwb2ludHM9IjI4OS4zNCwxOTQuMjksMjk4LjQwNjgsMTkwLjQ0MzcsMjkyLjc1MzIsMTkwLjYzNjIsMjkyLjU2MDcsMTg0Ljk4MjYsMjg5LjM0LDE5NC4yOSIgc3R5bGU9InN0cm9rZTojMTgxODE4O3N0cm9rZS13aWR0aDoxLjA7Ii8+PHRleHQgZmlsbD0iIzAwMDAwMCIgZm9udC1mYW1pbHk9InNhbnMtc2VyaWYiIGZvbnQtc2l6ZT0iMTMiIGxlbmd0aEFkanVzdD0ic3BhY2luZyIgdGV4dExlbmd0aD0iMjUiIHg9IjMzMS44ODYyIiB5PSIxMzUuMzI4OCI+MC4uKjwvdGV4dD48L2c+PCEtLWxpbmsgUmlkZUl0ZXJhdG9yIHRvIFJpZGUtLT48ZyBpZD0ibGlua19SaWRlSXRlcmF0b3JfUmlkZSI+PHBhdGggY29kZUxpbmU9IjQ0IiBkPSJNMTY1LjgzNzYsMTI1LjQyMDkgQzE3Ni40NDc2LDE0My45MzA5IDE3OS42MTcsMTQ5LjQ3NDEgMTkxLjA3NywxNjkuNDc0MSAiIGZpbGw9Im5vbmUiIGlkPSJSaWRlSXRlcmF0b3ItUmlkZSIgc3R5bGU9InN0cm9rZTojMTgxODE4O3N0cm9rZS13aWR0aDoxLjA7Ii8+PHBvbHlnb24gZmlsbD0iIzE4MTgxOCIgcG9pbnRzPSIxNTkuODcsMTE1LjAxLDE1OS4zODM1LDEyMi4yMDQ3LDE2NS44Mzc2LDEyNS40MjA5LDE2Ni4zMjQxLDExOC4yMjYzLDE1OS44NywxMTUuMDEiIHN0eWxlPSJzdHJva2U6IzE4MTgxODtzdHJva2Utd2lkdGg6MS4wOyIvPjxwb2x5Z29uIGZpbGw9IiMxODE4MTgiIHBvaW50cz0iMTk0LjA2LDE3NC42OCwxOTMuMDU2MSwxNjQuODgyNCwxOTEuNTc0MiwxNzAuMzQxNywxODYuMTE0OSwxNjguODU5OCwxOTQuMDYsMTc0LjY4IiBzdHlsZT0ic3Ryb2tlOiMxODE4MTg7c3Ryb2tlLXdpZHRoOjEuMDsiLz48dGV4dCBmaWxsPSIjMDAwMDAwIiBmb250LWZhbWlseT0ic2Fucy1zZXJpZiIgZm9udC1zaXplPSIxMyIgbGVuZ3RoQWRqdXN0PSJzcGFjaW5nIiB0ZXh0TGVuZ3RoPSI3IiB4PSIxNTYuMzEyNyIgeT0iMTM1LjExNDUiPjE8L3RleHQ+PHRleHQgZmlsbD0iIzAwMDAwMCIgZm9udC1mYW1pbHk9InNhbnMtc2VyaWYiIGZvbnQtc2l6ZT0iMTMiIGxlbmd0aEFkanVzdD0ic3BhY2luZyIgdGV4dExlbmd0aD0iMjUiIHg9IjE2My4yOTEyIiB5PSIxNjUuNDI5NSI+MC4uKjwvdGV4dD48L2c+PCEtLVNSQz1bVlA5QkppQ200OFJ0RVNLZWNvUWo2aTZzR2pjbWVIQWhTVzFheDI0UUFSTUJGS05iVElnRW1DTW1Pd1RuTXFITXlfZmRsWGJkMWhVelMwV1JLYlg4UnhoMVg4eTJfQlVtdGR1YTVIcmJ3SExqajdVLTRkS3RraVBJSHBnTGVNRklXaWNhVzZGMVVuVGpEV3ppSU5UTE5ObUxuSW5EOXFPaGJCNDJmRDdJOGVrQ1BIc0lSNm5ZTVdPY2p1OXhTZG1KeWNxQ2FyUHVNMDVmWmZEb1FOTVhnTUVIbldETnpJZ2tkbTU5cXdFS3pGRWpacUptaWFUMDVyY1YtbG5RVHh3amlNX18wb3dvb1lnRDVxZzV3ODBOOExCMkpuR3l1SVYycU8tYVEtdFRQXzRFbnAzNVk0R3VrcmRReW96VHNFSEN2cUVaeGZCWmI2NjNsUDMtZVZyVF80ejNzcnNGTXpHaVhqQ0w5d19ORDlfamZDeEZEY0sycEI1aEVCdmxBZm9IYjNLU0xVTExxeW5CTTJ4Ui03ZWRteWhoNGtPWGJRZjJ5WFMwXS0tPjwvZz48L3N2Zz4=;" parent="1" vertex="1">
            <mxGeometry x="30" y="410" width="543" height="334" as="geometry" />
          </mxCell>
        </UserObject>
        <UserObject label="" plantUmlData="{&#xa;  &quot;data&quot;: &quot;@startuml\ninterface FareStrategy {\n    +calculate_fare(distance: int): float\n}\n\nclass StandardFareStrategy {\n    +calculate_fare(distance: int): float\n}\n\nclass PremiumFareStrategy {\n    +calculate_fare(distance: int): float\n}\n\nclass SharedFareStrategy {\n    +calculate_fare(distance: int): float\n}\n\nclass Ride {\n    -driver: str\n    -passenger: str\n    -origin: str\n    -destination: str\n    -distance: int\n    -fare_strategy: FareStrategy\n    +__init__(driver: str, passenger: str, origin: str, destination: str, distance: int, fare_strategy: FareStrategy)\n    +calculate_fare(): float\n    +get_ride_details(): str\n}\n\nFareStrategy &lt;|.. StandardFareStrategy\nFareStrategy &lt;|.. PremiumFareStrategy\nFareStrategy &lt;|.. SharedFareStrategy\nRide --&gt; FareStrategy\n\n@enduml\n&quot;,&#xa;  &quot;format&quot;: &quot;svg&quot;&#xa;}" id="8xXhik0c4usQAm_cwb4U-6">
          <mxCell style="shape=image;noLabel=1;verticalAlign=top;aspect=fixed;imageAspect=0;image=data:image/svg+xml,PD94bWwgdmVyc2lvbj0iMS4wIiBlbmNvZGluZz0idXMtYXNjaWkiIHN0YW5kYWxvbmU9Im5vIj8+PHN2ZyB4bWxucz0iaHR0cDovL3d3dy53My5vcmcvMjAwMC9zdmciIHhtbG5zOnhsaW5rPSJodHRwOi8vd3d3LnczLm9yZy8xOTk5L3hsaW5rIiBjb250ZW50U3R5bGVUeXBlPSJ0ZXh0L2NzcyIgaGVpZ2h0PSI0NDJweCIgcHJlc2VydmVBc3BlY3RSYXRpbz0ibm9uZSIgc3R5bGU9IndpZHRoOjkyNHB4O2hlaWdodDo0NDJweDtiYWNrZ3JvdW5kOiNGRkZGRkY7IiB2ZXJzaW9uPSIxLjEiIHZpZXdCb3g9IjAgMCA5MjQgNDQyIiB3aWR0aD0iOTI0cHgiIHpvb21BbmRQYW49Im1hZ25pZnkiPjxkZWZzLz48Zz48IS0tY2xhc3MgRmFyZVN0cmF0ZWd5LS0+PGcgaWQ9ImVsZW1fRmFyZVN0cmF0ZWd5Ij48cmVjdCBjb2RlTGluZT0iMSIgZmlsbD0iI0YxRjFGMSIgaGVpZ2h0PSI2Mi45ODQ0IiBpZD0iRmFyZVN0cmF0ZWd5IiByeD0iMi41IiByeT0iMi41IiBzdHlsZT0ic3Ryb2tlOiMxODE4MTg7c3Ryb2tlLXdpZHRoOjAuNTsiIHdpZHRoPSIyODAiIHg9IjMyMiIgeT0iMjUwIi8+PGVsbGlwc2UgY3g9IjQxNS43NSIgY3k9IjI2NiIgZmlsbD0iI0I0QTdFNSIgcng9IjExIiByeT0iMTEiIHN0eWxlPSJzdHJva2U6IzE4MTgxODtzdHJva2Utd2lkdGg6MS4wOyIvPjxwYXRoIGQ9Ik00MTguODc1LDI3MiBMNDE4Ljg3NSwyNzAuMjUgTDQxNi43NSwyNzAuMjUgUTQxNi43NSwyNzAuMjUgNDE2Ljc1LDI2Mi40Mzc1IEw0MTguODc1LDI2Mi40Mzc1IEw0MTguODc1LDI2MC42ODc1IEw0MTIuODc1LDI2MC42ODc1IEw0MTIuODc1LDI2Mi40Mzc1IEw0MTUsMjYyLjQzNzUgUTQxNSwyNjIuNDM3NSA0MTUsMjcwLjI1IEw0MTIuODc1LDI3MC4yNSBMNDEyLjg3NSwyNzIgTDQxOC44NzUsMjcyIFogIiBmaWxsPSIjMDAwMDAwIi8+PHRleHQgZmlsbD0iIzAwMDAwMCIgZm9udC1mYW1pbHk9InNhbnMtc2VyaWYiIGZvbnQtc2l6ZT0iMTQiIGZvbnQtc3R5bGU9Iml0YWxpYyIgbGVuZ3RoQWRqdXN0PSJzcGFjaW5nIiB0ZXh0TGVuZ3RoPSI4NCIgeD0iNDM2LjI1IiB5PSIyNzEuNzQyMiI+RmFyZVN0cmF0ZWd5PC90ZXh0PjxsaW5lIHN0eWxlPSJzdHJva2U6IzE4MTgxODtzdHJva2Utd2lkdGg6MC41OyIgeDE9IjMyMyIgeDI9IjYwMSIgeTE9IjI4MiIgeTI9IjI4MiIvPjxsaW5lIHN0eWxlPSJzdHJva2U6IzE4MTgxODtzdHJva2Utd2lkdGg6MC41OyIgeDE9IjMyMyIgeDI9IjYwMSIgeTE9IjI5MCIgeTI9IjI5MCIvPjxlbGxpcHNlIGN4PSIzMzMiIGN5PSIzMDIuOTkyMiIgZmlsbD0iIzg0QkU4NCIgcng9IjMiIHJ5PSIzIiBzdHlsZT0ic3Ryb2tlOiMwMzgwNDg7c3Ryb2tlLXdpZHRoOjEuMDsiLz48dGV4dCBmaWxsPSIjMDAwMDAwIiBmb250LWZhbWlseT0ic2Fucy1zZXJpZiIgZm9udC1zaXplPSIxNCIgbGVuZ3RoQWRqdXN0PSJzcGFjaW5nIiB0ZXh0TGVuZ3RoPSIyNTQiIHg9IjM0MiIgeT0iMzA3LjIzNDQiPmNhbGN1bGF0ZV9mYXJlKGRpc3RhbmNlOiBpbnQpOiBmbG9hdDwvdGV4dD48L2c+PCEtLWNsYXNzIFN0YW5kYXJkRmFyZVN0cmF0ZWd5LS0+PGcgaWQ9ImVsZW1fU3RhbmRhcmRGYXJlU3RyYXRlZ3kiPjxyZWN0IGNvZGVMaW5lPSI1IiBmaWxsPSIjRjFGMUYxIiBoZWlnaHQ9IjYyLjk4NDQiIGlkPSJTdGFuZGFyZEZhcmVTdHJhdGVneSIgcng9IjIuNSIgcnk9IjIuNSIgc3R5bGU9InN0cm9rZTojMTgxODE4O3N0cm9rZS13aWR0aDowLjU7IiB3aWR0aD0iMjgwIiB4PSI3IiB5PSIzNzMiLz48ZWxsaXBzZSBjeD0iNzIuNzUiIGN5PSIzODkiIGZpbGw9IiNBREQxQjIiIHJ4PSIxMSIgcnk9IjExIiBzdHlsZT0ic3Ryb2tlOiMxODE4MTg7c3Ryb2tlLXdpZHRoOjEuMDsiLz48cGF0aCBkPSJNNzAuMzc1LDM5My4yNSBMNzAuMzc1LDM5NSBMNzUuMzEyNSwzOTUgTDc1LjMxMjUsMzkzLjI1IEw3MC4zNzUsMzkzLjI1IFogTTcxLjA2MjUsMzkzLjkzNzUgUTcxLjA2MjUsMzkzLjkzNzUgNzEuMDYyNSwzODQuNzUgTDY5LjMxMjUsMzg0Ljc1IFE2OS4zMTI1LDM4NC43NSA2OS4zMTI1LDM5My45Mzc1IEw3MS4wNjI1LDM5My45Mzc1IFogTTc0LjYyNSwzOTMuOTM3NSBMNzYuMzc1LDM5My45Mzc1IFE3Ni4zNzUsMzkzLjkzNzUgNzYuMzc1LDM5MS4xMjUgTDc0LjYyNSwzOTEuMTI1IFE3NC42MjUsMzkxLjEyNSA3NC42MjUsMzkzLjkzNzUgWiBNNzQuNjI1LDM4NC43NSBRNzQuNjI1LDM4NC43NSA3NC42MjUsMzg3LjU2MjUgTDc2LjM3NSwzODcuNTYyNSBRNzYuMzc1LDM4Ny41NjI1IDc2LjM3NSwzODQuNzUgTDc0LjYyNSwzODQuNzUgWiBNNzAuMzc1LDM4NS40Mzc1IEw3NS4zMTI1LDM4NS40Mzc1IEw3NS4zMTI1LDM4My42ODc1IEw3MC4zNzUsMzgzLjY4NzUgTDcwLjM3NSwzODUuNDM3NSBaICIgZmlsbD0iIzAwMDAwMCIvPjx0ZXh0IGZpbGw9IiMwMDAwMDAiIGZvbnQtZmFtaWx5PSJzYW5zLXNlcmlmIiBmb250LXNpemU9IjE0IiBsZW5ndGhBZGp1c3Q9InNwYWNpbmciIHRleHRMZW5ndGg9IjE0MCIgeD0iOTMuMjUiIHk9IjM5NC43NDIyIj5TdGFuZGFyZEZhcmVTdHJhdGVneTwvdGV4dD48bGluZSBzdHlsZT0ic3Ryb2tlOiMxODE4MTg7c3Ryb2tlLXdpZHRoOjAuNTsiIHgxPSI4IiB4Mj0iMjg2IiB5MT0iNDA1IiB5Mj0iNDA1Ii8+PGxpbmUgc3R5bGU9InN0cm9rZTojMTgxODE4O3N0cm9rZS13aWR0aDowLjU7IiB4MT0iOCIgeDI9IjI4NiIgeTE9IjQxMyIgeTI9IjQxMyIvPjxlbGxpcHNlIGN4PSIxOCIgY3k9IjQyNS45OTIyIiBmaWxsPSIjODRCRTg0IiByeD0iMyIgcnk9IjMiIHN0eWxlPSJzdHJva2U6IzAzODA0ODtzdHJva2Utd2lkdGg6MS4wOyIvPjx0ZXh0IGZpbGw9IiMwMDAwMDAiIGZvbnQtZmFtaWx5PSJzYW5zLXNlcmlmIiBmb250LXNpemU9IjE0IiBsZW5ndGhBZGp1c3Q9InNwYWNpbmciIHRleHRMZW5ndGg9IjI1NCIgeD0iMjciIHk9IjQzMC4yMzQ0Ij5jYWxjdWxhdGVfZmFyZShkaXN0YW5jZTogaW50KTogZmxvYXQ8L3RleHQ+PC9nPjwhLS1jbGFzcyBQcmVtaXVtRmFyZVN0cmF0ZWd5LS0+PGcgaWQ9ImVsZW1fUHJlbWl1bUZhcmVTdHJhdGVneSI+PHJlY3QgY29kZUxpbmU9IjkiIGZpbGw9IiNGMUYxRjEiIGhlaWdodD0iNjIuOTg0NCIgaWQ9IlByZW1pdW1GYXJlU3RyYXRlZ3kiIHJ4PSIyLjUiIHJ5PSIyLjUiIHN0eWxlPSJzdHJva2U6IzE4MTgxODtzdHJva2Utd2lkdGg6MC41OyIgd2lkdGg9IjI4MCIgeD0iMzIyIiB5PSIzNzMiLz48ZWxsaXBzZSBjeD0iMzkwLjI1IiBjeT0iMzg5IiBmaWxsPSIjQUREMUIyIiByeD0iMTEiIHJ5PSIxMSIgc3R5bGU9InN0cm9rZTojMTgxODE4O3N0cm9rZS13aWR0aDoxLjA7Ii8+PHBhdGggZD0iTTM4Ny44NzUsMzkzLjI1IEwzODcuODc1LDM5NSBMMzkyLjgxMjUsMzk1IEwzOTIuODEyNSwzOTMuMjUgTDM4Ny44NzUsMzkzLjI1IFogTTM4OC41NjI1LDM5My45Mzc1IFEzODguNTYyNSwzOTMuOTM3NSAzODguNTYyNSwzODQuNzUgTDM4Ni44MTI1LDM4NC43NSBRMzg2LjgxMjUsMzg0Ljc1IDM4Ni44MTI1LDM5My45Mzc1IEwzODguNTYyNSwzOTMuOTM3NSBaIE0zOTIuMTI1LDM5My45Mzc1IEwzOTMuODc1LDM5My45Mzc1IFEzOTMuODc1LDM5My45Mzc1IDM5My44NzUsMzkxLjEyNSBMMzkyLjEyNSwzOTEuMTI1IFEzOTIuMTI1LDM5MS4xMjUgMzkyLjEyNSwzOTMuOTM3NSBaIE0zOTIuMTI1LDM4NC43NSBRMzkyLjEyNSwzODQuNzUgMzkyLjEyNSwzODcuNTYyNSBMMzkzLjg3NSwzODcuNTYyNSBRMzkzLjg3NSwzODcuNTYyNSAzOTMuODc1LDM4NC43NSBMMzkyLjEyNSwzODQuNzUgWiBNMzg3Ljg3NSwzODUuNDM3NSBMMzkyLjgxMjUsMzg1LjQzNzUgTDM5Mi44MTI1LDM4My42ODc1IEwzODcuODc1LDM4My42ODc1IEwzODcuODc1LDM4NS40Mzc1IFogIiBmaWxsPSIjMDAwMDAwIi8+PHRleHQgZmlsbD0iIzAwMDAwMCIgZm9udC1mYW1pbHk9InNhbnMtc2VyaWYiIGZvbnQtc2l6ZT0iMTQiIGxlbmd0aEFkanVzdD0ic3BhY2luZyIgdGV4dExlbmd0aD0iMTM1IiB4PSI0MTAuNzUiIHk9IjM5NC43NDIyIj5QcmVtaXVtRmFyZVN0cmF0ZWd5PC90ZXh0PjxsaW5lIHN0eWxlPSJzdHJva2U6IzE4MTgxODtzdHJva2Utd2lkdGg6MC41OyIgeDE9IjMyMyIgeDI9IjYwMSIgeTE9IjQwNSIgeTI9IjQwNSIvPjxsaW5lIHN0eWxlPSJzdHJva2U6IzE4MTgxODtzdHJva2Utd2lkdGg6MC41OyIgeDE9IjMyMyIgeDI9IjYwMSIgeTE9IjQxMyIgeTI9IjQxMyIvPjxlbGxpcHNlIGN4PSIzMzMiIGN5PSI0MjUuOTkyMiIgZmlsbD0iIzg0QkU4NCIgcng9IjMiIHJ5PSIzIiBzdHlsZT0ic3Ryb2tlOiMwMzgwNDg7c3Ryb2tlLXdpZHRoOjEuMDsiLz48dGV4dCBmaWxsPSIjMDAwMDAwIiBmb250LWZhbWlseT0ic2Fucy1zZXJpZiIgZm9udC1zaXplPSIxNCIgbGVuZ3RoQWRqdXN0PSJzcGFjaW5nIiB0ZXh0TGVuZ3RoPSIyNTQiIHg9IjM0MiIgeT0iNDMwLjIzNDQiPmNhbGN1bGF0ZV9mYXJlKGRpc3RhbmNlOiBpbnQpOiBmbG9hdDwvdGV4dD48L2c+PCEtLWNsYXNzIFNoYXJlZEZhcmVTdHJhdGVneS0tPjxnIGlkPSJlbGVtX1NoYXJlZEZhcmVTdHJhdGVneSI+PHJlY3QgY29kZUxpbmU9IjEzIiBmaWxsPSIjRjFGMUYxIiBoZWlnaHQ9IjYyLjk4NDQiIGlkPSJTaGFyZWRGYXJlU3RyYXRlZ3kiIHJ4PSIyLjUiIHJ5PSIyLjUiIHN0eWxlPSJzdHJva2U6IzE4MTgxODtzdHJva2Utd2lkdGg6MC41OyIgd2lkdGg9IjI4MCIgeD0iNjM3IiB5PSIzNzMiLz48ZWxsaXBzZSBjeD0iNzA5Ljc1IiBjeT0iMzg5IiBmaWxsPSIjQUREMUIyIiByeD0iMTEiIHJ5PSIxMSIgc3R5bGU9InN0cm9rZTojMTgxODE4O3N0cm9rZS13aWR0aDoxLjA7Ii8+PHBhdGggZD0iTTcwNy4zNzUsMzkzLjI1IEw3MDcuMzc1LDM5NSBMNzEyLjMxMjUsMzk1IEw3MTIuMzEyNSwzOTMuMjUgTDcwNy4zNzUsMzkzLjI1IFogTTcwOC4wNjI1LDM5My45Mzc1IFE3MDguMDYyNSwzOTMuOTM3NSA3MDguMDYyNSwzODQuNzUgTDcwNi4zMTI1LDM4NC43NSBRNzA2LjMxMjUsMzg0Ljc1IDcwNi4zMTI1LDM5My45Mzc1IEw3MDguMDYyNSwzOTMuOTM3NSBaIE03MTEuNjI1LDM5My45Mzc1IEw3MTMuMzc1LDM5My45Mzc1IFE3MTMuMzc1LDM5My45Mzc1IDcxMy4zNzUsMzkxLjEyNSBMNzExLjYyNSwzOTEuMTI1IFE3MTEuNjI1LDM5MS4xMjUgNzExLjYyNSwzOTMuOTM3NSBaIE03MTEuNjI1LDM4NC43NSBRNzExLjYyNSwzODQuNzUgNzExLjYyNSwzODcuNTYyNSBMNzEzLjM3NSwzODcuNTYyNSBRNzEzLjM3NSwzODcuNTYyNSA3MTMuMzc1LDM4NC43NSBMNzExLjYyNSwzODQuNzUgWiBNNzA3LjM3NSwzODUuNDM3NSBMNzEyLjMxMjUsMzg1LjQzNzUgTDcxMi4zMTI1LDM4My42ODc1IEw3MDcuMzc1LDM4My42ODc1IEw3MDcuMzc1LDM4NS40Mzc1IFogIiBmaWxsPSIjMDAwMDAwIi8+PHRleHQgZmlsbD0iIzAwMDAwMCIgZm9udC1mYW1pbHk9InNhbnMtc2VyaWYiIGZvbnQtc2l6ZT0iMTQiIGxlbmd0aEFkanVzdD0ic3BhY2luZyIgdGV4dExlbmd0aD0iMTI2IiB4PSI3MzAuMjUiIHk9IjM5NC43NDIyIj5TaGFyZWRGYXJlU3RyYXRlZ3k8L3RleHQ+PGxpbmUgc3R5bGU9InN0cm9rZTojMTgxODE4O3N0cm9rZS13aWR0aDowLjU7IiB4MT0iNjM4IiB4Mj0iOTE2IiB5MT0iNDA1IiB5Mj0iNDA1Ii8+PGxpbmUgc3R5bGU9InN0cm9rZTojMTgxODE4O3N0cm9rZS13aWR0aDowLjU7IiB4MT0iNjM4IiB4Mj0iOTE2IiB5MT0iNDEzIiB5Mj0iNDEzIi8+PGVsbGlwc2UgY3g9IjY0OCIgY3k9IjQyNS45OTIyIiBmaWxsPSIjODRCRTg0IiByeD0iMyIgcnk9IjMiIHN0eWxlPSJzdHJva2U6IzAzODA0ODtzdHJva2Utd2lkdGg6MS4wOyIvPjx0ZXh0IGZpbGw9IiMwMDAwMDAiIGZvbnQtZmFtaWx5PSJzYW5zLXNlcmlmIiBmb250LXNpemU9IjE0IiBsZW5ndGhBZGp1c3Q9InNwYWNpbmciIHRleHRMZW5ndGg9IjI1NCIgeD0iNjU3IiB5PSI0MzAuMjM0NCI+Y2FsY3VsYXRlX2ZhcmUoZGlzdGFuY2U6IGludCk6IGZsb2F0PC90ZXh0PjwvZz48IS0tY2xhc3MgUmlkZS0tPjxnIGlkPSJlbGVtX1JpZGUiPjxyZWN0IGNvZGVMaW5lPSIxNyIgZmlsbD0iI0YxRjFGMSIgaGVpZ2h0PSIxODIuODU5NCIgaWQ9IlJpZGUiIHJ4PSIyLjUiIHJ5PSIyLjUiIHN0eWxlPSJzdHJva2U6IzE4MTgxODtzdHJva2Utd2lkdGg6MC41OyIgd2lkdGg9IjgxMiIgeD0iNTYiIHk9IjciLz48ZWxsaXBzZSBjeD0iNDQzLjc1IiBjeT0iMjMiIGZpbGw9IiNBREQxQjIiIHJ4PSIxMSIgcnk9IjExIiBzdHlsZT0ic3Ryb2tlOiMxODE4MTg7c3Ryb2tlLXdpZHRoOjEuMDsiLz48cGF0aCBkPSJNNDQxLjM3NSwyNy4yNSBMNDQxLjM3NSwyOSBMNDQ2LjMxMjUsMjkgTDQ0Ni4zMTI1LDI3LjI1IEw0NDEuMzc1LDI3LjI1IFogTTQ0Mi4wNjI1LDI3LjkzNzUgUTQ0Mi4wNjI1LDI3LjkzNzUgNDQyLjA2MjUsMTguNzUgTDQ0MC4zMTI1LDE4Ljc1IFE0NDAuMzEyNSwxOC43NSA0NDAuMzEyNSwyNy45Mzc1IEw0NDIuMDYyNSwyNy45Mzc1IFogTTQ0NS42MjUsMjcuOTM3NSBMNDQ3LjM3NSwyNy45Mzc1IFE0NDcuMzc1LDI3LjkzNzUgNDQ3LjM3NSwyNS4xMjUgTDQ0NS42MjUsMjUuMTI1IFE0NDUuNjI1LDI1LjEyNSA0NDUuNjI1LDI3LjkzNzUgWiBNNDQ1LjYyNSwxOC43NSBRNDQ1LjYyNSwxOC43NSA0NDUuNjI1LDIxLjU2MjUgTDQ0Ny4zNzUsMjEuNTYyNSBRNDQ3LjM3NSwyMS41NjI1IDQ0Ny4zNzUsMTguNzUgTDQ0NS42MjUsMTguNzUgWiBNNDQxLjM3NSwxOS40Mzc1IEw0NDYuMzEyNSwxOS40Mzc1IEw0NDYuMzEyNSwxNy42ODc1IEw0NDEuMzc1LDE3LjY4NzUgTDQ0MS4zNzUsMTkuNDM3NSBaICIgZmlsbD0iIzAwMDAwMCIvPjx0ZXh0IGZpbGw9IiMwMDAwMDAiIGZvbnQtZmFtaWx5PSJzYW5zLXNlcmlmIiBmb250LXNpemU9IjE0IiBsZW5ndGhBZGp1c3Q9InNwYWNpbmciIHRleHRMZW5ndGg9IjI4IiB4PSI0NjQuMjUiIHk9IjI4Ljc0MjIiPlJpZGU8L3RleHQ+PGxpbmUgc3R5bGU9InN0cm9rZTojMTgxODE4O3N0cm9rZS13aWR0aDowLjU7IiB4MT0iNTciIHgyPSI4NjciIHkxPSIzOSIgeTI9IjM5Ii8+PHJlY3QgZmlsbD0ibm9uZSIgaGVpZ2h0PSI2IiBzdHlsZT0ic3Ryb2tlOiNDODI5MzA7c3Ryb2tlLXdpZHRoOjEuMDsiIHdpZHRoPSI2IiB4PSI2NCIgeT0iNDguOTkyMiIvPjx0ZXh0IGZpbGw9IiMwMDAwMDAiIGZvbnQtZmFtaWx5PSJzYW5zLXNlcmlmIiBmb250LXNpemU9IjE0IiBsZW5ndGhBZGp1c3Q9InNwYWNpbmciIHRleHRMZW5ndGg9Ijc3IiB4PSI3NiIgeT0iNTYuMjM0NCI+ZHJpdmVyOiBzdHI8L3RleHQ+PHJlY3QgZmlsbD0ibm9uZSIgaGVpZ2h0PSI2IiBzdHlsZT0ic3Ryb2tlOiNDODI5MzA7c3Ryb2tlLXdpZHRoOjEuMDsiIHdpZHRoPSI2IiB4PSI2NCIgeT0iNjMuOTc2NiIvPjx0ZXh0IGZpbGw9IiMwMDAwMDAiIGZvbnQtZmFtaWx5PSJzYW5zLXNlcmlmIiBmb250LXNpemU9IjE0IiBsZW5ndGhBZGp1c3Q9InNwYWNpbmciIHRleHRMZW5ndGg9Ijk4IiB4PSI3NiIgeT0iNzEuMjE4OCI+cGFzc2VuZ2VyOiBzdHI8L3RleHQ+PHJlY3QgZmlsbD0ibm9uZSIgaGVpZ2h0PSI2IiBzdHlsZT0ic3Ryb2tlOiNDODI5MzA7c3Ryb2tlLXdpZHRoOjEuMDsiIHdpZHRoPSI2IiB4PSI2NCIgeT0iNzguOTYwOSIvPjx0ZXh0IGZpbGw9IiMwMDAwMDAiIGZvbnQtZmFtaWx5PSJzYW5zLXNlcmlmIiBmb250LXNpemU9IjE0IiBsZW5ndGhBZGp1c3Q9InNwYWNpbmciIHRleHRMZW5ndGg9Ijc3IiB4PSI3NiIgeT0iODYuMjAzMSI+b3JpZ2luOiBzdHI8L3RleHQ+PHJlY3QgZmlsbD0ibm9uZSIgaGVpZ2h0PSI2IiBzdHlsZT0ic3Ryb2tlOiNDODI5MzA7c3Ryb2tlLXdpZHRoOjEuMDsiIHdpZHRoPSI2IiB4PSI2NCIgeT0iOTMuOTQ1MyIvPjx0ZXh0IGZpbGw9IiMwMDAwMDAiIGZvbnQtZmFtaWx5PSJzYW5zLXNlcmlmIiBmb250LXNpemU9IjE0IiBsZW5ndGhBZGp1c3Q9InNwYWNpbmciIHRleHRMZW5ndGg9IjExMiIgeD0iNzYiIHk9IjEwMS4xODc1Ij5kZXN0aW5hdGlvbjogc3RyPC90ZXh0PjxyZWN0IGZpbGw9Im5vbmUiIGhlaWdodD0iNiIgc3R5bGU9InN0cm9rZTojQzgyOTMwO3N0cm9rZS13aWR0aDoxLjA7IiB3aWR0aD0iNiIgeD0iNjQiIHk9IjEwOC45Mjk3Ii8+PHRleHQgZmlsbD0iIzAwMDAwMCIgZm9udC1mYW1pbHk9InNhbnMtc2VyaWYiIGZvbnQtc2l6ZT0iMTQiIGxlbmd0aEFkanVzdD0ic3BhY2luZyIgdGV4dExlbmd0aD0iOTEiIHg9Ijc2IiB5PSIxMTYuMTcxOSI+ZGlzdGFuY2U6IGludDwvdGV4dD48cmVjdCBmaWxsPSJub25lIiBoZWlnaHQ9IjYiIHN0eWxlPSJzdHJva2U6I0M4MjkzMDtzdHJva2Utd2lkdGg6MS4wOyIgd2lkdGg9IjYiIHg9IjY0IiB5PSIxMjMuOTE0MSIvPjx0ZXh0IGZpbGw9IiMwMDAwMDAiIGZvbnQtZmFtaWx5PSJzYW5zLXNlcmlmIiBmb250LXNpemU9IjE0IiBsZW5ndGhBZGp1c3Q9InNwYWNpbmciIHRleHRMZW5ndGg9IjE4OSIgeD0iNzYiIHk9IjEzMS4xNTYzIj5mYXJlX3N0cmF0ZWd5OiBGYXJlU3RyYXRlZ3k8L3RleHQ+PGxpbmUgc3R5bGU9InN0cm9rZTojMTgxODE4O3N0cm9rZS13aWR0aDowLjU7IiB4MT0iNTciIHgyPSI4NjciIHkxPSIxMzYuOTA2MyIgeTI9IjEzNi45MDYzIi8+PGVsbGlwc2UgY3g9IjY3IiBjeT0iMTQ5Ljg5ODQiIGZpbGw9IiM4NEJFODQiIHJ4PSIzIiByeT0iMyIgc3R5bGU9InN0cm9rZTojMDM4MDQ4O3N0cm9rZS13aWR0aDoxLjA7Ii8+PHRleHQgZmlsbD0iIzAwMDAwMCIgZm9udC1mYW1pbHk9InNhbnMtc2VyaWYiIGZvbnQtc2l6ZT0iMTQiIGxlbmd0aEFkanVzdD0ic3BhY2luZyIgdGV4dExlbmd0aD0iNzg2IiB4PSI3NiIgeT0iMTU0LjE0MDYiPl9faW5pdF9fKGRyaXZlcjogc3RyLCBwYXNzZW5nZXI6IHN0ciwgb3JpZ2luOiBzdHIsIGRlc3RpbmF0aW9uOiBzdHIsIGRpc3RhbmNlOiBpbnQsIGZhcmVfc3RyYXRlZ3k6IEZhcmVTdHJhdGVneSk8L3RleHQ+PGVsbGlwc2UgY3g9IjY3IiBjeT0iMTY0Ljg4MjgiIGZpbGw9IiM4NEJFODQiIHJ4PSIzIiByeT0iMyIgc3R5bGU9InN0cm9rZTojMDM4MDQ4O3N0cm9rZS13aWR0aDoxLjA7Ii8+PHRleHQgZmlsbD0iIzAwMDAwMCIgZm9udC1mYW1pbHk9InNhbnMtc2VyaWYiIGZvbnQtc2l6ZT0iMTQiIGxlbmd0aEFkanVzdD0ic3BhY2luZyIgdGV4dExlbmd0aD0iMTYzIiB4PSI3NiIgeT0iMTY5LjEyNSI+Y2FsY3VsYXRlX2ZhcmUoKTogZmxvYXQ8L3RleHQ+PGVsbGlwc2UgY3g9IjY3IiBjeT0iMTc5Ljg2NzIiIGZpbGw9IiM4NEJFODQiIHJ4PSIzIiByeT0iMyIgc3R5bGU9InN0cm9rZTojMDM4MDQ4O3N0cm9rZS13aWR0aDoxLjA7Ii8+PHRleHQgZmlsbD0iIzAwMDAwMCIgZm9udC1mYW1pbHk9InNhbnMtc2VyaWYiIGZvbnQtc2l6ZT0iMTQiIGxlbmd0aEFkanVzdD0ic3BhY2luZyIgdGV4dExlbmd0aD0iMTYzIiB4PSI3NiIgeT0iMTg0LjEwOTQiPmdldF9yaWRlX2RldGFpbHMoKTogc3RyPC90ZXh0PjwvZz48IS0tcmV2ZXJzZSBsaW5rIEZhcmVTdHJhdGVneSB0byBTdGFuZGFyZEZhcmVTdHJhdGVneS0tPjxnIGlkPSJsaW5rX0ZhcmVTdHJhdGVneV9TdGFuZGFyZEZhcmVTdHJhdGVneSI+PHBhdGggY29kZUxpbmU9IjI5IiBkPSJNMzY1LjcwOCwzMTkuNDg2OSBDMzE3Ljk1OCwzMzcuODM2OSAyNzQuMjEsMzU0LjY0IDIyNi40NiwzNzIuOTggIiBmaWxsPSJub25lIiBpZD0iRmFyZVN0cmF0ZWd5LWJhY2t0by1TdGFuZGFyZEZhcmVTdHJhdGVneSIgc3R5bGU9InN0cm9rZTojMTgxODE4O3N0cm9rZS13aWR0aDoxLjA7c3Ryb2tlLWRhc2hhcnJheTo3LjAsNy4wOyIvPjxwb2x5Z29uIGZpbGw9Im5vbmUiIHBvaW50cz0iMzgyLjUxLDMxMy4wMywzNjMuNTU1NywzMTMuODg2MiwzNjcuODYwMywzMjUuMDg3NiwzODIuNTEsMzEzLjAzIiBzdHlsZT0ic3Ryb2tlOiMxODE4MTg7c3Ryb2tlLXdpZHRoOjEuMDsiLz48L2c+PCEtLXJldmVyc2UgbGluayBGYXJlU3RyYXRlZ3kgdG8gUHJlbWl1bUZhcmVTdHJhdGVneS0tPjxnIGlkPSJsaW5rX0ZhcmVTdHJhdGVneV9QcmVtaXVtRmFyZVN0cmF0ZWd5Ij48cGF0aCBjb2RlTGluZT0iMzAiIGQ9Ik00NjIsMzMxLjAzIEM0NjIsMzQ5LjM4IDQ2MiwzNTQuNjQgNDYyLDM3Mi45OCAiIGZpbGw9Im5vbmUiIGlkPSJGYXJlU3RyYXRlZ3ktYmFja3RvLVByZW1pdW1GYXJlU3RyYXRlZ3kiIHN0eWxlPSJzdHJva2U6IzE4MTgxODtzdHJva2Utd2lkdGg6MS4wO3N0cm9rZS1kYXNoYXJyYXk6Ny4wLDcuMDsiLz48cG9seWdvbiBmaWxsPSJub25lIiBwb2ludHM9IjQ2MiwzMTMuMDMsNDU2LDMzMS4wMyw0NjgsMzMxLjAzLDQ2MiwzMTMuMDMiIHN0eWxlPSJzdHJva2U6IzE4MTgxODtzdHJva2Utd2lkdGg6MS4wOyIvPjwvZz48IS0tcmV2ZXJzZSBsaW5rIEZhcmVTdHJhdGVneSB0byBTaGFyZWRGYXJlU3RyYXRlZ3ktLT48ZyBpZD0ibGlua19GYXJlU3RyYXRlZ3lfU2hhcmVkRmFyZVN0cmF0ZWd5Ij48cGF0aCBjb2RlTGluZT0iMzEiIGQ9Ik01NTguMjkyLDMxOS40ODY5IEM2MDYuMDQyLDMzNy44MzY5IDY0OS43OSwzNTQuNjQgNjk3LjU0LDM3Mi45OCAiIGZpbGw9Im5vbmUiIGlkPSJGYXJlU3RyYXRlZ3ktYmFja3RvLVNoYXJlZEZhcmVTdHJhdGVneSIgc3R5bGU9InN0cm9rZTojMTgxODE4O3N0cm9rZS13aWR0aDoxLjA7c3Ryb2tlLWRhc2hhcnJheTo3LjAsNy4wOyIvPjxwb2x5Z29uIGZpbGw9Im5vbmUiIHBvaW50cz0iNTQxLjQ5LDMxMy4wMyw1NTYuMTM5NywzMjUuMDg3Niw1NjAuNDQ0MywzMTMuODg2Miw1NDEuNDksMzEzLjAzIiBzdHlsZT0ic3Ryb2tlOiMxODE4MTg7c3Ryb2tlLXdpZHRoOjEuMDsiLz48L2c+PCEtLWxpbmsgUmlkZSB0byBGYXJlU3RyYXRlZ3ktLT48ZyBpZD0ibGlua19SaWRlX0ZhcmVTdHJhdGVneSI+PHBhdGggY29kZUxpbmU9IjMyIiBkPSJNNDYyLDE5MC4yNyBDNDYyLDIxMS43OSA0NjIsMjI3LjI5IDQ2MiwyNDMuOSAiIGZpbGw9Im5vbmUiIGlkPSJSaWRlLXRvLUZhcmVTdHJhdGVneSIgc3R5bGU9InN0cm9rZTojMTgxODE4O3N0cm9rZS13aWR0aDoxLjA7Ii8+PHBvbHlnb24gZmlsbD0iIzE4MTgxOCIgcG9pbnRzPSI0NjIsMjQ5LjksNDY2LDI0MC45LDQ2MiwyNDQuOSw0NTgsMjQwLjksNDYyLDI0OS45IiBzdHlsZT0ic3Ryb2tlOiMxODE4MTg7c3Ryb2tlLXdpZHRoOjEuMDsiLz48L2c+PCEtLVNSQz1baEw5MUpXQ24zQnBkNUp3c09oU0ZNMjZFZDE1ekc2R2J0aUxJY2FNRU1tZEhfZnJpanE4OUg1bmVaWkVFUHBtc0hvS1BxSDR5ZXoxVTFQTWMzX1dxYUQtM20tMkU4S0RzcEVwNlNyQUNaV1JXZ0RpMW5aMlpjZWluQmMxQWlDLWFIXzdfeF9HWVRFM1p1R3dNdGRCSDdHb3ppZ1ZScHp1QmRxVzZJMmVoeTl1aEE0dUxEV2pGNzBsMEtyQUVnM25OUTJjeEdlaVRjc3ZrWHNlamd0RGhFUjlRa29jQ1Q1MlJ3QTBtcUM1RnlPb0ttWHR5OFJmanZsS1RxUE1TSUF0YVlBbWRIR3ZmZVBTUFN0dkx6ZV9kdFF2djllc29uV3NxY2xyUWlCZGtnay1WZ1ljLTAwMDBdLS0+PC9nPjwvc3ZnPg==;" parent="1" vertex="1">
            <mxGeometry x="30" y="30" width="606.24" height="290" as="geometry" />
          </mxCell>
        </UserObject>
      </root>
    </mxGraphModel>
  </diagram>
</mxfile>
